<svg width="20" height="20" viewBox="0 0 20 20" fill="none" xmlns="http://www.w3.org/2000/svg">
<path d="M6 2V12.184C5.67976 12.0655 5.34145 12.0032 5 12C4.40666 12 3.82664 12.1759 3.33329 12.5056C2.83994 12.8352 2.45543 13.3038 2.22836 13.8519C2.0013 14.4001 1.94189 15.0033 2.05765 15.5853C2.1734 16.1672 2.45912 16.7018 2.87868 17.1213C3.29824 17.5409 3.83279 17.8266 4.41473 17.9424C4.99667 18.0581 5.59987 17.9987 6.14805 17.7716C6.69623 17.5446 7.16476 17.1601 7.49441 16.6667C7.82405 16.1734 8 15.5933 8 15V5H15V9.184C14.6798 9.06548 14.3414 9.00323 14 9C13.4067 9 12.8266 9.17595 12.3333 9.50559C11.8399 9.83523 11.4554 10.3038 11.2284 10.8519C11.0013 11.4001 10.9419 12.0033 11.0576 12.5853C11.1734 13.1672 11.4591 13.7018 11.8787 14.1213C12.2982 14.5409 12.8328 14.8266 13.4147 14.9424C13.9967 15.0581 14.5999 14.9987 15.1481 14.7716C15.6962 14.5446 16.1648 14.1601 16.4944 13.6667C16.8241 13.1734 17 12.5933 17 12V2H6Z" fill="#04075F"/>
</svg>
