<svg width="335" height="110" viewBox="0 0 335 110" fill="none" xmlns="http://www.w3.org/2000/svg">
<g opacity="0.2" clip-path="url(#clip0_1334_9576)">
<path d="M321 117C304.393 98.365 294.983 75.8583 294.052 52.5428C293.368 31.6948 299.502 11.0914 311.781 -7" stroke="#33C257" stroke-width="8" stroke-miterlimit="10"/>
<path d="M341 58C332.197 49.7364 324.139 40.9428 316.89 31.6908C315.538 29.9724 300.212 10.3886 303.448 8.16649C305.155 7.01102 309.92 12.1958 318.952 13.6772C326.609 14.6312 334.423 13.2871 341 9.88489" stroke="#33C257" stroke-width="8" stroke-miterlimit="10"/>
<path d="M270.329 -10C266.463 -5.95397 264.22 -1.0075 263.912 4.14766C263.481 19.722 283.88 28.6088 280.654 35.861C277.427 43.1132 253.587 42.0432 250.79 41.8054C207.555 39.5762 169.876 13.8073 146 -6.84948" stroke="#33C257" stroke-width="8" stroke-miterlimit="10"/>
<path d="M143.843 116C150.101 94.9442 150.671 73.0072 145.513 51.7486C140.355 30.49 129.596 10.4318 114 -7.00001" stroke="#33C257" stroke-width="8" stroke-miterlimit="10"/>
<path d="M180 120C176.625 113.696 170.54 108.573 162.853 105.566C157.59 103.602 151.791 102.742 146 103.067" stroke="#33C257" stroke-width="8" stroke-miterlimit="10"/>
<path d="M250 116C238.2 101.731 224.197 88.8297 208.355 77.633C188.831 63.8586 166.757 52.8367 143 45" stroke="#33C257" stroke-width="8" stroke-miterlimit="10"/>
<path d="M97.2226 117C103.791 91.8189 101.764 65.591 91.3742 41.3354C83.4885 23.229 71.0865 6.74872 55 -7" stroke="#33C257" stroke-width="8" stroke-miterlimit="10"/>
<path d="M58 117C57.7843 95.4999 45.8103 76.7924 26.3571 68.9551C18.1308 65.7598 9.02949 64.4637 3.92599e-06 65.2016" stroke="#33C257" stroke-width="8" stroke-miterlimit="10"/>
</g>
<defs>
<clipPath id="clip0_1334_9576">
<rect width="335" height="110" fill="white" transform="translate(335 110) rotate(-180)"/>
</clipPath>
</defs>
</svg>
