<svg height="20" viewBox="0 0 23 20" width="23" xmlns="http://www.w3.org/2000/svg">
    <g data-name="Group 86263" id="Group_86263" opacity="0.4" transform="translate(-297.5 -735)">
        <g data-name="Polygon 1" fill="none" id="Polygon_1" transform="translate(297.5 735)">
            <path
                d="M16.093,0a2,2,0,0,1,1.734,1l4.6,8a2,2,0,0,1,0,1.994l-4.6,8a2,2,0,0,1-1.734,1H6.907a2,2,0,0,1-1.734-1l-4.6-8A2,2,0,0,1,.573,9l4.6-8A2,2,0,0,1,6.907,0Z"
                stroke="none" />
            <path
                d="M 6.907049179077148 2 L 2.307050704956055 10 L 6.907049179077148 18 L 16.09294891357422 18 L 20.69294929504395 10 L 16.09293937683105 2 L 6.907049179077148 2 M 6.907049179077148 0 L 16.09293937683105 0 C 16.80874061584473 0 17.4699592590332 0.3825302124023438 17.82675933837891 1.003059387207031 L 22.42675971984863 9.003060340881348 C 22.78166961669922 9.62030029296875 22.78166961669922 10.37969970703125 22.42675971984863 10.99693965911865 L 17.82675933837891 18.99694061279297 C 17.4699592590332 19.61746978759766 16.80874061584473 20 16.09293937683105 20 L 6.907049179077148 20 C 6.191259384155273 20 5.530040740966797 19.61746978759766 5.173240661621094 18.99694061279297 L 0.5732402801513672 10.99693965911865 C 0.2183208465576172 10.37969017028809 0.2183208465576172 9.62030029296875 0.5732402801513672 9.003060340881348 L 5.173240661621094 1.003059387207031 C 5.530040740966797 0.3825302124023438 6.191259384155273 0 6.907049179077148 0 Z"
                fill="#fff" stroke="none" />
        </g>
        <circle cx="3" cy="3" data-name="Ellipse 52" fill="#fff" id="Ellipse_52"
            r="3" transform="translate(306 742)" />
    </g>
</svg>
