<svg width="21" height="18" viewBox="0 0 21 18" fill="none" xmlns="http://www.w3.org/2000/svg">
<path d="M4.125 0C4.52282 0 4.90436 0.158035 5.18566 0.43934C5.46696 0.720644 5.625 1.10218 5.625 1.5V16.5C5.625 16.8978 5.46696 17.2794 5.18566 17.5607C4.90436 17.842 4.52282 18 4.125 18H2.125C1.72718 18 1.34564 17.842 1.06434 17.5607C0.783035 17.2794 0.625 16.8978 0.625 16.5V1.5C0.625 1.10218 0.783035 0.720644 1.06434 0.43934C1.34564 0.158035 1.72718 0 2.125 0H4.125ZM10.125 0C10.5228 0 10.9044 0.158035 11.1857 0.43934C11.467 0.720644 11.625 1.10218 11.625 1.5V16.5C11.625 16.8978 11.467 17.2794 11.1857 17.5607C10.9044 17.842 10.5228 18 10.125 18H8.125C7.72718 18 7.34564 17.842 7.06434 17.5607C6.78304 17.2794 6.625 16.8978 6.625 16.5V1.5C6.625 1.10218 6.78304 0.720644 7.06434 0.43934C7.34564 0.158035 7.72718 0 8.125 0H10.125ZM17.406 3.124L20.62 15.643C20.669 15.8338 20.6799 16.0324 20.6522 16.2274C20.6244 16.4225 20.5585 16.6101 20.4582 16.7797C20.3579 16.9493 20.2252 17.0974 20.0677 17.2157C19.9101 17.334 19.7308 17.42 19.54 17.469L17.664 17.949C17.4732 17.998 17.2746 18.0089 17.0796 17.9812C16.8845 17.9534 16.6969 17.8875 16.5273 17.7872C16.3577 17.6869 16.2096 17.5542 16.0913 17.3967C15.973 17.2391 15.887 17.0598 15.838 16.869L12.624 4.354C12.575 4.16319 12.5641 3.96459 12.5918 3.76956C12.6196 3.57452 12.6855 3.38686 12.7858 3.2173C12.8861 3.04774 13.0188 2.89959 13.1763 2.78132C13.3339 2.66305 13.5132 2.57697 13.704 2.528L15.58 2.045C15.9653 1.9466 16.374 2.00503 16.7163 2.20749C17.0586 2.40996 17.3066 2.73891 17.406 3.124Z" fill="#676CF9"/>
</svg>
