<svg height="20.776" id="Lock" viewBox="0 0 16 20.776" width="16"
    xmlns="http://www.w3.org/2000/svg">
    <g data-name="Group 86443" id="Group_86443" transform="translate(0.204 0)">
        <path d="M-459.2-278.447a4,4,0,0,1-4-4v-6a4,4,0,0,1,3-3.874c-.014-.6.038-1.252.038-1.941a4.961,4.961,0,0,1,4.962-4.962,4.961,4.961,0,0,1,4.961,4.962c0,.689.052,1.345.038,1.941a4,4,0,0,1,3,3.874v6a4,4,0,0,1-4,4Zm7-14c0-.282-.008-.592-.016-.827-.011-.314-.022-.64-.022-.988a2.964,2.964,0,0,0-2.961-2.961,2.964,2.964,0,0,0-2.961,2.961c0,.348-.012.674-.022.988-.008.235-.02.546-.017.827Z" data-name="Union 1"
            fill="rgba(255,255,255,0.5)"
            id="Union_1" transform="translate(463 299.224)" />
    </g>
</svg>
