<svg width="24" height="24" viewBox="0 0 24 24" fill="none" xmlns="http://www.w3.org/2000/svg">
<path d="M10.4621 3.91005C10.3202 3.90728 10.1817 3.95491 10.0705 4.04479C9.95926 4.13467 9.88215 4.26119 9.85239 4.40267L7.77701 14.3074C7.7378 14.4945 7.64577 14.6665 7.51182 14.8029L7.26405 15.0552C6.88213 15.4442 6.88212 16.0674 7.26402 16.4564L8.39302 17.6064C8.78508 18.0057 9.42853 18.0056 9.82044 17.6061L10.537 16.8757C10.8726 16.5339 11.0612 16.0703 11.0615 15.5868V4.53155C11.0613 4.3685 10.9985 4.21203 10.8864 4.09567C10.7744 3.97932 10.622 3.91329 10.4621 3.91005ZM7.48671 19.9859C7.65098 19.8184 7.65096 19.5503 7.48666 19.3829L5.55878 17.4185C5.39022 17.2467 5.11351 17.2468 4.94497 17.4186C4.78094 17.5858 4.78092 17.8535 4.94492 18.0207L6.87206 19.9858C7.04081 20.1579 7.31793 20.1579 7.48671 19.9859ZM8.02042 4.00456C8.10887 3.58239 8.30171 3.19027 8.58064 2.86543C8.85957 2.54059 9.21532 2.29381 9.61412 2.14852C10.0129 2.00322 10.4415 1.96425 10.8593 2.03528C11.0089 2.06072 11.1553 2.09997 11.2969 2.15224C11.7418 2.31657 12.26 2.3164 12.7048 2.15186C12.8464 2.09948 12.9929 2.06014 13.1426 2.03464C13.5604 1.96346 13.9891 2.00238 14.388 2.1477C14.7869 2.29303 15.1427 2.53992 15.4216 2.86493C15.7005 3.18993 15.8932 3.58224 15.9815 4.00456L17.9408 13.3567C17.9799 13.5437 18.0719 13.7156 18.2057 13.852L21.313 17.0193C21.6945 17.4082 21.6945 18.031 21.313 18.4199L17.5345 22.2714C17.1425 22.671 16.4988 22.671 16.1068 22.2714L12.1386 18.2266C12.0629 18.1494 11.9372 18.1494 11.8614 18.2266L7.8932 22.2722C7.50119 22.6719 6.85749 22.6719 6.46545 22.2723L2.68695 18.4208C2.30544 18.0319 2.3054 17.4092 2.68687 17.0203L5.79448 13.8519C5.92819 13.7155 6.02008 13.5438 6.05927 13.3569L8.02042 4.00456ZM14.1485 4.40267C14.1184 4.25077 14.0337 4.1158 13.9111 4.02416C13.7885 3.93252 13.6368 3.8908 13.4856 3.90715C13.3344 3.92351 13.1946 3.99676 13.0936 4.11259C12.9926 4.22842 12.9376 4.37849 12.9394 4.53346V15.5868C12.9394 16.0709 13.1277 16.5348 13.4639 16.8757L14.1801 17.6062C14.5721 18.0061 15.2161 18.0061 15.6081 17.6063L16.7364 16.4558C17.1177 16.067 17.1178 15.4446 16.7365 15.0556L16.4886 14.8028C16.355 14.6664 16.2632 14.4947 16.224 14.3078L14.1485 4.40267ZM19.0553 17.4183C18.8866 17.2466 18.6098 17.2467 18.4413 17.4186L16.5138 19.3833C16.3497 19.5505 16.3496 19.8183 16.5135 19.9857C16.6821 20.1578 16.9592 20.1579 17.128 19.9859L19.0555 18.0211C19.2197 17.8537 19.2196 17.5856 19.0553 17.4183Z" fill="#04075F"/>
</svg>
