<svg height="32" id="Facility" viewBox="0 0 32 32" width="32" xmlns="http://www.w3.org/2000/svg">
    <path d="M671,379.214v7.377a1.969,1.969,0,0,1-1.969,1.969h-1.975a2.072,2.072,0,0,1-2.072-2.073V383.3a1.256,1.256,0,0,0-1.256-1.256h-1.458a1.256,1.256,0,0,0-1.256,1.256v3.188a2.072,2.072,0,0,1-2.072,2.073h-1.975A1.969,1.969,0,0,1,655,386.591v-7.377a1.974,1.974,0,0,1,.652-1.463l6.033-5.433a1.969,1.969,0,0,1,2.634,0l6.033,5.433A1.972,1.972,0,0,1,671,379.214Z" data-name="Path 3979"
        fill="none"
        id="Path_3979" stroke="#fff" stroke-width="2" transform="translate(-647.001 -364.312)" />
    <rect data-name="Rectangle 1128" fill="none" height="32" id="Rectangle_1128" width="32" />
</svg>
