<svg height="57.482" id="Icon_Primary_Light" viewBox="0 0 57.341 57.482" width="57.341"
    xmlns="http://www.w3.org/2000/svg">
    <g data-name="Group 86419" id="Group_86419" transform="translate(28.685)">
        <path d="M318.653,96.213c-.587-.04-1.18-.061-1.764-.061V92.36c.671,0,1.352.024,2.026.071Z" data-name="Path 3950"
            fill="#02a76f"
            id="Path_3950" transform="translate(-316.889 -92.36)" />
    </g>
    <g data-name="Group 86420" id="Group_86420" transform="translate(13.69 50.952)">
        <line data-name="Line 1" fill="none" id="Line_1" transform="translate(0 0)" />
    </g>
    <g data-name="Group 86421" id="Group_86421" transform="translate(28.685 1.896)">
        <line data-name="Line 2" fill="none" id="Line_2" transform="translate(0 0)" />
    </g>
    <g data-name="Group 86430" id="Group_86430" transform="translate(0 0.606)">
        <g data-name="Group 86423" id="Group_86423" transform="translate(9.966 47.231)">
            <path d="M314.681,155.22q-1.143,0-2.291-.092a28.58,28.58,0,0,1-15.61-6.177,1.9,1.9,0,1,1,2.367-2.962,24.933,24.933,0,0,0,29.8.958,1.9,1.9,0,0,1,2.171,3.109A28.763,28.763,0,0,1,314.681,155.22Z" data-name="Path 3952"
                fill="#fff"
                id="Path_3952" transform="translate(-296.067 -145.574)" />
        </g>
        <g data-name="Group 86427" id="Group_86427" transform="translate(33.802)">
            <g data-name="Group 86424" id="Group_86424">
                <path d="M324.48,97.22c-.624-.182-1.262-.343-1.9-.475l.773-3.712c.734.153,1.471.337,2.19.547Z" data-name="Path 3953"
                    fill="#fff"
                    id="Path_3953" transform="translate(-322.582 -93.034)" />
            </g>
            <g data-name="Group 86425" id="Group_86425" transform="translate(5.39 2.066)">
                <path d="M343.085,135.482l-3.3-1.865a24.8,24.8,0,0,0,1.586-3.378l3.545,1.348A28.67,28.67,0,0,1,343.085,135.482Zm3.051-8.021-3.706-.8a24.912,24.912,0,0,0,.512-3.7l3.785.238A28.7,28.7,0,0,1,346.136,127.46Zm-3.235-8.235a25.016,25.016,0,0,0-.6-3.685l3.687-.885a28.746,28.746,0,0,1,.686,4.247Zm-1.736-7.237a24.978,24.978,0,0,0-1.663-3.341l3.259-1.939a28.764,28.764,0,0,1,1.917,3.85Zm-3.807-6.4a25.24,25.24,0,0,0-2.576-2.7l2.544-2.812a28.88,28.88,0,0,1,2.965,3.114Zm-5.524-5a25.008,25.008,0,0,0-3.256-1.826l1.6-3.437a28.727,28.727,0,0,1,3.752,2.1Z" data-name="Path 3954"
                    fill="#fff"
                    id="Path_3954" transform="translate(-328.578 -95.332)" />
            </g>
            <g data-name="Group 86426" id="Group_86426" transform="translate(13.242 43.471)">
                <path d="M340.105,145.448l-2.793-2.566c.44-.478.866-.981,1.267-1.491l2.985,2.338C341.1,144.318,340.611,144.9,340.105,145.448Z" data-name="Path 3955"
                    fill="#fff"
                    id="Path_3955" transform="translate(-337.312 -141.391)" />
            </g>
        </g>
        <g data-name="Group 86428" id="Group_86428" transform="translate(0 0.383)">
            <path d="M290.392,138.009h0a1.9,1.9,0,0,1,.424-2.646h0a1.892,1.892,0,0,1,2.646.423h.007a1.893,1.893,0,0,1-.431,2.646h0a1.86,1.86,0,0,1-1.107.364h0A1.9,1.9,0,0,1,290.392,138.009Zm-2.787-4.756a1.891,1.891,0,0,1,.921-2.519h0a1.9,1.9,0,0,1,2.52.921h0a1.9,1.9,0,0,1-.929,2.519h0a1.873,1.873,0,0,1-.8.179h0A1.894,1.894,0,0,1,287.605,133.253Zm-1.828-5.209a1.886,1.886,0,0,1,1.39-2.289h0a1.886,1.886,0,0,1,2.29,1.39h0a1.886,1.886,0,0,1-1.39,2.289h0a1.912,1.912,0,0,1-.454.059h0A1.887,1.887,0,0,1,285.777,128.044Zm-.795-5.455a1.9,1.9,0,0,1,1.806-1.984h0a1.89,1.89,0,0,1,1.984,1.8h0a1.891,1.891,0,0,1-1.806,1.984h0a.372.372,0,0,1-.089.007h0A1.906,1.906,0,0,1,284.982,122.589Zm1.865-3.359a1.9,1.9,0,0,1-1.606-2.148h0a1.892,1.892,0,0,1,2.148-1.6h0a1.893,1.893,0,0,1,1.6,2.14h0a1.9,1.9,0,0,1-1.872,1.628h0C287.034,119.245,286.944,119.237,286.847,119.229Zm.869-5.1a1.878,1.878,0,0,1-1.167-2.407h0a1.887,1.887,0,0,1,2.415-1.167h0a1.89,1.89,0,0,1,1.16,2.415h0a1.89,1.89,0,0,1-1.784,1.271h0A1.812,1.812,0,0,1,287.717,114.131Zm1.82-4.83a1.9,1.9,0,0,1-.676-2.593h0a1.9,1.9,0,0,1,2.593-.677h0a1.887,1.887,0,0,1,.677,2.594h0a1.893,1.893,0,0,1-1.635.936h0A1.888,1.888,0,0,1,289.537,109.3Zm2.728-4.385a1.888,1.888,0,0,1-.179-2.675h0a1.9,1.9,0,0,1,2.675-.178h0a1.9,1.9,0,0,1,.172,2.682h0a1.881,1.881,0,0,1-1.42.639h0A1.891,1.891,0,0,1,292.265,104.916Zm3.5-3.79a1.894,1.894,0,0,1,.342-2.661h0a1.9,1.9,0,0,1,2.66.335h0a1.9,1.9,0,0,1-.342,2.66h0a1.878,1.878,0,0,1-1.16.4h0A1.89,1.89,0,0,1,295.766,101.126Zm4.161-3.062a1.892,1.892,0,0,1,.84-2.541h0a1.9,1.9,0,0,1,2.549.84h0a1.9,1.9,0,0,1-.84,2.549h0a1.945,1.945,0,0,1-.854.2h0A1.891,1.891,0,0,1,299.927,98.064Zm4.675-2.2a1.893,1.893,0,0,1,1.315-2.334h0a1.893,1.893,0,0,1,2.334,1.316h0a1.893,1.893,0,0,1-1.315,2.333h0a1.753,1.753,0,0,1-.513.075h0A1.893,1.893,0,0,1,304.6,95.865Z" data-name="Path 3956"
                fill="#fff"
                id="Path_3956" transform="translate(-284.98 -93.46)" />
        </g>
        <g data-name="Group 86429" id="Group_86429" transform="translate(25.557 7.08)">
            <path d="M315.218,144.5h0a1.9,1.9,0,0,1-1.806-1.984h0a1.905,1.905,0,0,1,1.984-1.806h0a1.905,1.905,0,0,1,1.806,1.985h0a1.9,1.9,0,0,1-1.9,1.805h-.089Zm2.326-1.82a1.9,1.9,0,0,1,1.589-2.163h0a1.9,1.9,0,0,1,2.163,1.591h0a1.9,1.9,0,0,1-1.59,2.162h0a1.961,1.961,0,0,1-.289.022h0A1.9,1.9,0,0,1,317.544,142.679Zm4.087-.654a1.909,1.909,0,0,1,1.13-2.438h0a1.9,1.9,0,0,1,2.43,1.13h0a1.9,1.9,0,0,1-1.129,2.438h0a1.938,1.938,0,0,1-.647.111h0A1.9,1.9,0,0,1,321.631,142.024Zm3.88-1.456a1.89,1.89,0,0,1,.624-2.609h0a1.889,1.889,0,0,1,2.6.625h0a1.89,1.89,0,0,1-.625,2.608h0a1.9,1.9,0,0,1-.988.282h0A1.9,1.9,0,0,1,325.511,140.568Zm3.508-2.193a1.887,1.887,0,0,1,.1-2.682h0a1.892,1.892,0,0,1,2.675.1h0a1.9,1.9,0,0,1-.1,2.682h0a1.9,1.9,0,0,1-1.294.506h0A1.874,1.874,0,0,1,329.018,138.376Zm3-2.846a1.9,1.9,0,0,1-.432-2.646h0a1.885,1.885,0,0,1,2.646-.431h0a1.884,1.884,0,0,1,.432,2.645h0a1.9,1.9,0,0,1-1.539.788h0A1.9,1.9,0,0,1,332.021,135.53Zm2.392-3.382a1.891,1.891,0,0,1-.951-2.5h0a1.9,1.9,0,0,1,2.513-.95h0a1.9,1.9,0,0,1,.944,2.512h0a1.891,1.891,0,0,1-1.724,1.115h0A1.824,1.824,0,0,1,334.413,132.148Zm1.673-3.782a1.894,1.894,0,0,1-1.428-2.274v.007a1.9,1.9,0,0,1,2.267-1.435h0a1.9,1.9,0,0,1,1.427,2.274h0a1.894,1.894,0,0,1-1.843,1.472h0A2.052,2.052,0,0,1,336.086,128.366Zm.884-4.043a1.9,1.9,0,0,1-1.85-1.946h0a1.894,1.894,0,0,1,1.947-1.844h0a1.888,1.888,0,0,1,1.843,1.94h0a1.894,1.894,0,0,1-1.895,1.85h-.045Zm-2.125-5.678a1.9,1.9,0,0,1,1.546-2.2h0a1.9,1.9,0,0,1,2.193,1.546h0a1.9,1.9,0,0,1-1.546,2.193h0a1.607,1.607,0,0,1-.32.03h0A1.9,1.9,0,0,1,334.845,118.645Zm-1-3.611v.007a1.889,1.889,0,0,1,1.078-2.46h0a1.889,1.889,0,0,1,2.452,1.077h0a1.9,1.9,0,0,1-1.078,2.453h0a1.874,1.874,0,0,1-.691.133h0A1.888,1.888,0,0,1,333.841,115.033Zm-1.7-3.33a1.891,1.891,0,0,1,.565-2.623h0a1.891,1.891,0,0,1,2.616.572h0a1.881,1.881,0,0,1-.565,2.616h0a1.852,1.852,0,0,1-1.026.3h0A1.873,1.873,0,0,1,332.14,111.7Zm-2.334-2.935a1.893,1.893,0,0,1,.037-2.676h0a1.894,1.894,0,0,1,2.683.038h0a1.9,1.9,0,0,1-.038,2.682h0a1.9,1.9,0,0,1-1.322.536h0A1.879,1.879,0,0,1,329.806,108.769Zm-2.861-2.415a1.9,1.9,0,0,1-.49-2.638h0a1.9,1.9,0,0,1,2.638-.483h0a1.887,1.887,0,0,1,.483,2.63h0a1.888,1.888,0,0,1-1.561.825h0A1.842,1.842,0,0,1,326.945,106.353Zm-3.285-1.806v.007a1.9,1.9,0,0,1-1-2.489h0a1.9,1.9,0,0,1,2.49-1h0a1.9,1.9,0,0,1,1,2.489h0A1.905,1.905,0,0,1,324.4,104.7h0A1.878,1.878,0,0,1,323.66,104.547Z" data-name="Path 3957"
                fill="#fff"
                id="Path_3957" transform="translate(-313.409 -100.91)" />
        </g>
        <path d="M315.2,110.646a12.281,12.281,0,1,0,12.281,12.281A12.281,12.281,0,0,0,315.2,110.646ZM309.86,126.18a1.114,1.114,0,1,1,1.114-1.114A1.114,1.114,0,0,1,309.86,126.18Zm7.06-5.678a2.228,2.228,0,1,1,2.227-2.228A2.228,2.228,0,0,1,316.919,120.5Z" data-name="Path 3958"
            fill="#fff"
            id="Path_3958" transform="translate(-286.793 -94.814)" />
    </g>
    <path d="M303.361,141.374a1.89,1.89,0,0,1-.979-.273,22.744,22.744,0,0,1-3.5-2.6,1.9,1.9,0,0,1,2.546-2.81,18.923,18.923,0,0,0,2.911,2.166,1.9,1.9,0,0,1-.983,3.518Zm-5.889-5.333a1.891,1.891,0,0,1-1.518-.759,22.638,22.638,0,0,1-2.266-3.721,1.9,1.9,0,1,1,3.413-1.651,18.818,18.818,0,0,0,1.887,3.1,1.9,1.9,0,0,1-1.516,3.034Zm-3.46-7.154a1.9,1.9,0,0,1-1.833-1.416,22.673,22.673,0,0,1-.693-4.3,1.9,1.9,0,0,1,3.785-.24,18.821,18.821,0,0,0,.576,3.581,1.9,1.9,0,0,1-1.835,2.378Zm-.5-7.931a1.858,1.858,0,0,1-.244-.016,1.9,1.9,0,0,1-1.64-2.121,22.549,22.549,0,0,1,.968-4.249,1.9,1.9,0,0,1,3.6,1.2,18.724,18.724,0,0,0-.805,3.533A1.9,1.9,0,0,1,293.507,120.957Zm2.5-7.539a1.9,1.9,0,0,1-1.648-2.83,22.7,22.7,0,0,1,2.5-3.568,1.9,1.9,0,0,1,2.882,2.464,18.946,18.946,0,0,0-2.082,2.971A1.9,1.9,0,0,1,296.01,113.419Zm5.165-6.042a1.9,1.9,0,0,1-1.181-3.38,22.726,22.726,0,0,1,3.654-2.371,1.9,1.9,0,1,1,1.748,3.365,18.87,18.87,0,0,0-3.042,1.975A1.892,1.892,0,0,1,301.175,107.377Zm7.05-3.662a1.9,1.9,0,0,1-.533-3.716,22.7,22.7,0,0,1,4.28-.816,1.9,1.9,0,0,1,.349,3.776,18.876,18.876,0,0,0-3.562.679A1.9,1.9,0,0,1,308.225,103.715Z" data-name="Path 3951"
        fill="#02a76f"
        id="Path_3951" transform="translate(-285.637 -93.049)" />
    <g data-name="Group 86423" id="Group_86423-2" transform="translate(9.966 47.837)">
        <path d="M314.681,155.22q-1.143,0-2.291-.092a28.58,28.58,0,0,1-15.61-6.177,1.9,1.9,0,1,1,2.367-2.962,24.933,24.933,0,0,0,29.8.958,1.9,1.9,0,0,1,2.171,3.109A28.763,28.763,0,0,1,314.681,155.22Z" data-name="Path 3952"
            fill="#02a76f"
            id="Path_3952-2" transform="translate(-296.067 -145.574)" />
    </g>
    <g data-name="Group 86427" id="Group_86427-2" transform="translate(33.802 0.606)">
        <g data-name="Group 86424" id="Group_86424-2">
            <path d="M324.48,97.22c-.624-.182-1.262-.343-1.9-.475l.773-3.712c.734.153,1.471.337,2.19.547Z" data-name="Path 3953"
                fill="#02a76f"
                id="Path_3953-2" transform="translate(-322.582 -93.034)" />
        </g>
        <g data-name="Group 86425" id="Group_86425-2" transform="translate(5.39 2.066)">
            <path d="M343.085,135.482l-3.3-1.865a24.8,24.8,0,0,0,1.586-3.378l3.545,1.348A28.67,28.67,0,0,1,343.085,135.482Zm3.051-8.021-3.706-.8a24.912,24.912,0,0,0,.512-3.7l3.785.238A28.7,28.7,0,0,1,346.136,127.46Zm-3.235-8.235a25.016,25.016,0,0,0-.6-3.685l3.687-.885a28.746,28.746,0,0,1,.686,4.247Zm-1.736-7.237a24.978,24.978,0,0,0-1.663-3.341l3.259-1.939a28.764,28.764,0,0,1,1.917,3.85Zm-3.807-6.4a25.24,25.24,0,0,0-2.576-2.7l2.544-2.812a28.88,28.88,0,0,1,2.965,3.114Zm-5.524-5a25.008,25.008,0,0,0-3.256-1.826l1.6-3.437a28.727,28.727,0,0,1,3.752,2.1Z" data-name="Path 3954"
                fill="#02a76f"
                id="Path_3954-2" transform="translate(-328.578 -95.332)" />
        </g>
        <g data-name="Group 86426" id="Group_86426-2" transform="translate(13.242 43.471)">
            <path d="M340.105,145.448l-2.793-2.566c.44-.478.866-.981,1.267-1.491l2.985,2.338C341.1,144.318,340.611,144.9,340.105,145.448Z" data-name="Path 3955"
                fill="#02a76f"
                id="Path_3955-2" transform="translate(-337.312 -141.391)" />
        </g>
    </g>
    <g data-name="Group 86428" id="Group_86428-2" transform="translate(0 0.989)">
        <path d="M290.392,138.009h0a1.9,1.9,0,0,1,.424-2.646h0a1.892,1.892,0,0,1,2.646.423h.007a1.893,1.893,0,0,1-.431,2.646h0a1.86,1.86,0,0,1-1.107.364h0A1.9,1.9,0,0,1,290.392,138.009Zm-2.787-4.756a1.891,1.891,0,0,1,.921-2.519h0a1.9,1.9,0,0,1,2.52.921h0a1.9,1.9,0,0,1-.929,2.519h0a1.873,1.873,0,0,1-.8.179h0A1.894,1.894,0,0,1,287.605,133.253Zm-1.828-5.209a1.886,1.886,0,0,1,1.39-2.289h0a1.886,1.886,0,0,1,2.29,1.39h0a1.886,1.886,0,0,1-1.39,2.289h0a1.912,1.912,0,0,1-.454.059h0A1.887,1.887,0,0,1,285.777,128.044Zm-.795-5.455a1.9,1.9,0,0,1,1.806-1.984h0a1.89,1.89,0,0,1,1.984,1.8h0a1.891,1.891,0,0,1-1.806,1.984h0a.372.372,0,0,1-.089.007h0A1.906,1.906,0,0,1,284.982,122.589Zm1.865-3.359a1.9,1.9,0,0,1-1.606-2.148h0a1.892,1.892,0,0,1,2.148-1.6h0a1.893,1.893,0,0,1,1.6,2.14h0a1.9,1.9,0,0,1-1.872,1.628h0C287.034,119.245,286.944,119.237,286.847,119.229Zm.869-5.1a1.878,1.878,0,0,1-1.167-2.407h0a1.887,1.887,0,0,1,2.415-1.167h0a1.89,1.89,0,0,1,1.16,2.415h0a1.89,1.89,0,0,1-1.784,1.271h0A1.812,1.812,0,0,1,287.717,114.131Zm1.82-4.83a1.9,1.9,0,0,1-.676-2.593h0a1.9,1.9,0,0,1,2.593-.677h0a1.887,1.887,0,0,1,.677,2.594h0a1.893,1.893,0,0,1-1.635.936h0A1.888,1.888,0,0,1,289.537,109.3Zm2.728-4.385a1.888,1.888,0,0,1-.179-2.675h0a1.9,1.9,0,0,1,2.675-.178h0a1.9,1.9,0,0,1,.172,2.682h0a1.881,1.881,0,0,1-1.42.639h0A1.891,1.891,0,0,1,292.265,104.916Zm3.5-3.79a1.894,1.894,0,0,1,.342-2.661h0a1.9,1.9,0,0,1,2.66.335h0a1.9,1.9,0,0,1-.342,2.66h0a1.878,1.878,0,0,1-1.16.4h0A1.89,1.89,0,0,1,295.766,101.126Zm4.161-3.062a1.892,1.892,0,0,1,.84-2.541h0a1.9,1.9,0,0,1,2.549.84h0a1.9,1.9,0,0,1-.84,2.549h0a1.945,1.945,0,0,1-.854.2h0A1.891,1.891,0,0,1,299.927,98.064Zm4.675-2.2a1.893,1.893,0,0,1,1.315-2.334h0a1.893,1.893,0,0,1,2.334,1.316h0a1.893,1.893,0,0,1-1.315,2.333h0a1.753,1.753,0,0,1-.513.075h0A1.893,1.893,0,0,1,304.6,95.865Z" data-name="Path 3956"
            fill="#02a76f"
            id="Path_3956-2" transform="translate(-284.98 -93.46)" />
    </g>
    <g data-name="Group 86429" id="Group_86429-2" transform="translate(25.557 7.686)">
        <path d="M315.218,144.5h0a1.9,1.9,0,0,1-1.806-1.984h0a1.905,1.905,0,0,1,1.984-1.806h0a1.905,1.905,0,0,1,1.806,1.985h0a1.9,1.9,0,0,1-1.9,1.805h-.089Zm2.326-1.82a1.9,1.9,0,0,1,1.589-2.163h0a1.9,1.9,0,0,1,2.163,1.591h0a1.9,1.9,0,0,1-1.59,2.162h0a1.961,1.961,0,0,1-.289.022h0A1.9,1.9,0,0,1,317.544,142.679Zm4.087-.654a1.909,1.909,0,0,1,1.13-2.438h0a1.9,1.9,0,0,1,2.43,1.13h0a1.9,1.9,0,0,1-1.129,2.438h0a1.938,1.938,0,0,1-.647.111h0A1.9,1.9,0,0,1,321.631,142.024Zm3.88-1.456a1.89,1.89,0,0,1,.624-2.609h0a1.889,1.889,0,0,1,2.6.625h0a1.89,1.89,0,0,1-.625,2.608h0a1.9,1.9,0,0,1-.988.282h0A1.9,1.9,0,0,1,325.511,140.568Zm3.508-2.193a1.887,1.887,0,0,1,.1-2.682h0a1.892,1.892,0,0,1,2.675.1h0a1.9,1.9,0,0,1-.1,2.682h0a1.9,1.9,0,0,1-1.294.506h0A1.874,1.874,0,0,1,329.018,138.376Zm3-2.846a1.9,1.9,0,0,1-.432-2.646h0a1.885,1.885,0,0,1,2.646-.431h0a1.884,1.884,0,0,1,.432,2.645h0a1.9,1.9,0,0,1-1.539.788h0A1.9,1.9,0,0,1,332.021,135.53Zm2.392-3.382a1.891,1.891,0,0,1-.951-2.5h0a1.9,1.9,0,0,1,2.513-.95h0a1.9,1.9,0,0,1,.944,2.512h0a1.891,1.891,0,0,1-1.724,1.115h0A1.824,1.824,0,0,1,334.413,132.148Zm1.673-3.782a1.894,1.894,0,0,1-1.428-2.274v.007a1.9,1.9,0,0,1,2.267-1.435h0a1.9,1.9,0,0,1,1.427,2.274h0a1.894,1.894,0,0,1-1.843,1.472h0A2.052,2.052,0,0,1,336.086,128.366Zm.884-4.043a1.9,1.9,0,0,1-1.85-1.946h0a1.894,1.894,0,0,1,1.947-1.844h0a1.888,1.888,0,0,1,1.843,1.94h0a1.894,1.894,0,0,1-1.895,1.85h-.045Zm-2.125-5.678a1.9,1.9,0,0,1,1.546-2.2h0a1.9,1.9,0,0,1,2.193,1.546h0a1.9,1.9,0,0,1-1.546,2.193h0a1.607,1.607,0,0,1-.32.03h0A1.9,1.9,0,0,1,334.845,118.645Zm-1-3.611v.007a1.889,1.889,0,0,1,1.078-2.46h0a1.889,1.889,0,0,1,2.452,1.077h0a1.9,1.9,0,0,1-1.078,2.453h0a1.874,1.874,0,0,1-.691.133h0A1.888,1.888,0,0,1,333.841,115.033Zm-1.7-3.33a1.891,1.891,0,0,1,.565-2.623h0a1.891,1.891,0,0,1,2.616.572h0a1.881,1.881,0,0,1-.565,2.616h0a1.852,1.852,0,0,1-1.026.3h0A1.873,1.873,0,0,1,332.14,111.7Zm-2.334-2.935a1.893,1.893,0,0,1,.037-2.676h0a1.894,1.894,0,0,1,2.683.038h0a1.9,1.9,0,0,1-.038,2.682h0a1.9,1.9,0,0,1-1.322.536h0A1.879,1.879,0,0,1,329.806,108.769Zm-2.861-2.415a1.9,1.9,0,0,1-.49-2.638h0a1.9,1.9,0,0,1,2.638-.483h0a1.887,1.887,0,0,1,.483,2.63h0a1.888,1.888,0,0,1-1.561.825h0A1.842,1.842,0,0,1,326.945,106.353Zm-3.285-1.806v.007a1.9,1.9,0,0,1-1-2.489h0a1.9,1.9,0,0,1,2.49-1h0a1.9,1.9,0,0,1,1,2.489h0A1.905,1.905,0,0,1,324.4,104.7h0A1.878,1.878,0,0,1,323.66,104.547Z" data-name="Path 3957"
            fill="#02a76f"
            id="Path_3957-2" transform="translate(-313.409 -100.91)" />
    </g>
    <path d="M315.2,110.646a12.281,12.281,0,1,0,12.281,12.281A12.281,12.281,0,0,0,315.2,110.646ZM309.86,126.18a1.114,1.114,0,1,1,1.114-1.114A1.114,1.114,0,0,1,309.86,126.18Zm7.06-5.678a2.228,2.228,0,1,1,2.227-2.228A2.228,2.228,0,0,1,316.919,120.5Z" data-name="Path 3958"
        fill="#fff"
        id="Path_3958-2" transform="translate(-286.793 -94.208)" />
</svg>
