<svg height="31.946" id="trash" viewBox="0 0 24.28 31.946" width="24.28"
    xmlns="http://www.w3.org/2000/svg">
    <path d="M3.98,11.362,5.738,28.785c.1.736,3.653,3.158,8.8,3.161s8.707-2.425,8.8-3.161L25.1,11.362c-2.69,1.5-6.71,2.215-10.563,2.215S6.668,12.866,3.98,11.362ZM19.6,2.412,18.228.893C17.7.137,17.122,0,16,0H13.078c-1.118,0-1.695.137-2.223.893L9.482,2.412C5.377,3.129,2.4,5.031,2.4,6.435v.272c0,2.471,5.436,4.474,12.139,4.474s12.141-2,12.141-4.474V6.435c0-1.4-2.976-3.306-7.081-4.024Zm-1.754,4.52-1.709-2.14H12.942l-1.706,2.14H8.521S11.495,3.385,11.893,2.9A1.221,1.221,0,0,1,12.909,2.4h3.263a1.221,1.221,0,0,1,1.017.508c.4.481,3.372,4.028,3.372,4.028Z" data-name="trash"
        fill="#fff"
        id="trash-2" transform="translate(-2.4)" />
</svg>
