<svg width="36" height="36" viewBox="0 0 36 36" fill="none" xmlns="http://www.w3.org/2000/svg">
<mask id="mask0_1274_11083" style="mask-type:luminance" maskUnits="userSpaceOnUse" x="0" y="0" width="36" height="36">
<path d="M0 0H36V36H0V0Z" fill="white"/>
</mask>
<g mask="url(#mask0_1274_11083)">
<mask id="path-2-inside-1_1274_11083" fill="white">
<path d="M26.0057 21.4549C25.7894 21.1291 25.5053 20.8537 25.173 20.6476C24.8406 20.4414 24.4677 20.3093 24.0797 20.2602H24.0741C23.5687 20.1972 23.0558 20.2772 22.5936 20.4912C22.1314 20.7052 21.7386 21.0445 21.4596 21.4707C20.8515 20.994 20.1134 20.7124 19.3424 20.6629C19.5314 20.3029 19.7654 19.9654 20.0399 19.6605C19.3486 19.2082 18.7809 18.5908 18.388 17.8641C17.9952 17.1373 17.7896 16.3241 17.7899 15.498V15.3237C17.0724 14.8076 16.5052 14.11 16.1462 13.3024C15.7871 12.4949 15.6493 11.6064 15.7469 10.728C15.6128 10.7703 15.4774 10.8078 15.3407 10.8405H15.3419C15.123 11.7607 14.6392 12.5966 13.9502 13.2447C14.2236 14.148 14.2236 15.1122 13.9502 16.0155C14.6435 16.6665 15.1295 17.5075 15.3475 18.4332C15.9866 18.5857 16.5881 18.8666 17.1153 19.2588C17.6425 19.651 18.0844 20.1463 18.4142 20.7147C17.6585 20.8493 16.9606 21.2075 16.4106 21.7429C16.1784 21.375 15.8568 21.0719 15.4757 20.862C15.0946 20.652 14.6666 20.5421 14.2315 20.5425H14.2034C13.7941 20.5461 13.3916 20.6475 13.0296 20.8383C12.6675 21.0291 12.3563 21.3038 12.1221 21.6394C11.7513 22.166 11.5921 22.8128 11.6761 23.4514C11.7601 24.0899 12.0811 24.6736 12.5755 25.0864C12.9564 25.406 13.4216 25.6086 13.9151 25.6697C14.4086 25.7308 14.9092 25.6478 15.3565 25.4307C15.4937 25.9808 15.748 26.4837 16.0911 26.9112L15.5702 27.7527C14.9421 27.9338 14.2837 27.9855 13.635 27.9046C12.9863 27.8237 12.3608 27.6118 11.7965 27.2819C11.2321 26.952 10.7406 26.5109 10.3518 25.9854C9.96298 25.4599 9.68497 24.8608 9.53461 24.2247C8.89359 24.0738 8.29027 23.7933 7.76183 23.4003C7.2334 23.0074 6.79105 22.5103 6.46208 21.9399C6.1331 21.3694 5.92447 20.7376 5.84903 20.0834C5.7736 19.4292 5.83297 18.7665 6.02348 18.1362C5.54332 17.6854 5.16063 17.1411 4.89902 16.5367C4.63741 15.9324 4.50244 15.2808 4.50244 14.6222C4.50244 13.9637 4.63741 13.3121 4.89902 12.7077C5.16063 12.1033 5.54332 11.559 6.02348 11.1083C5.83496 10.4786 5.7772 9.81706 5.85374 9.16426C5.93028 8.51146 6.1395 7.8812 6.46856 7.31223C6.79761 6.74326 7.23955 6.24758 7.7672 5.85567C8.29485 5.46377 8.89708 5.1839 9.53686 5.03328C9.68748 4.3935 9.96735 3.79127 10.3593 3.26362C10.7512 2.73597 11.2468 2.29403 11.8158 1.96498C12.3848 1.63592 13.015 1.4267 13.6678 1.35016C14.3206 1.27362 14.9822 1.33138 15.6119 1.5199C16.0624 1.03981 16.6067 0.65723 17.211 0.395811C17.8153 0.134392 18.4668 -0.000310642 19.1252 2.85464e-05C19.8744 -0.00255079 20.6137 0.169697 21.2846 0.503074C21.9554 0.83645 22.5393 1.32176 22.9896 1.9204C24.0224 1.97053 25.014 2.34089 25.8268 2.98008C26.6396 3.61928 27.2333 4.49562 27.5255 5.4875C27.8178 6.47939 27.794 7.53763 27.4575 8.5154C27.1211 9.49316 26.4887 10.342 25.648 10.944C25.6592 11.0498 25.6592 11.1623 25.6592 11.2748V11.4492C26.5028 12.0587 27.1361 12.9153 27.4716 13.9005C28.457 14.1277 29.3496 14.6499 30.0306 15.3975C30.7115 16.1451 31.1483 17.0825 31.2828 18.0848C31.4172 19.087 31.2429 20.1064 30.7831 21.007C30.3232 21.9077 29.5998 22.6467 28.7091 23.1255C28.6846 23.857 28.499 24.5741 28.1654 25.2256C27.8318 25.8771 27.3586 26.4469 26.7793 26.8944C26.2001 27.3419 25.5293 27.6559 24.8147 27.8142C24.1001 27.9725 23.3593 27.9711 22.6454 27.81L22.0919 26.9123C22.417 26.5073 22.6622 26.0348 22.8029 25.5184C23.349 25.7186 23.9449 25.7384 24.5031 25.575C25.0613 25.4116 25.5525 25.0736 25.9045 24.6105C26.2472 24.1603 26.4411 23.6144 26.4593 23.0489C26.4774 22.4833 26.3189 21.9262 26.0057 21.4549ZM20.7902 2.85978C20.5008 2.61444 20.1608 2.43606 19.7945 2.33736C19.4282 2.23866 19.0446 2.22209 18.6711 2.28883C18.2976 2.35558 17.9435 2.50398 17.634 2.72345C17.3245 2.94291 17.0674 3.22802 16.8809 3.5584C17.3239 4.01092 17.6431 4.56986 17.8076 5.18145C17.9721 5.79303 17.9765 6.43666 17.8202 7.0504C18.1632 7.2509 18.5478 7.36948 18.9441 7.3969C18.8349 6.56524 19.0004 5.72066 19.4155 4.99177C19.8306 4.26288 20.4726 3.68962 21.2436 3.35928C21.115 3.17363 20.9626 3.00569 20.7902 2.85978ZM21.6666 4.40103C21.0892 4.65371 20.6174 5.09889 20.3316 5.66061C20.0458 6.22234 19.9638 6.86581 20.0995 7.48128C20.8585 7.36327 21.6355 7.47531 22.3303 7.80295C23.0251 8.13059 23.6058 8.65881 23.9976 9.31953C24.6251 8.99567 25.1022 8.44069 25.3282 7.77173C25.5542 7.10277 25.5115 6.37216 25.209 5.7341C24.9066 5.09604 24.368 4.60046 23.7071 4.35195C23.0462 4.10344 22.3145 4.12144 21.6666 4.40215M22.8422 9.61878C22.4544 9.1159 21.9026 8.76472 21.2828 8.6262C20.663 8.48769 20.0143 8.5706 19.4492 8.86053C19.0093 9.08527 18.6387 9.4255 18.3774 9.84474C18.116 10.264 17.9737 10.7465 17.9656 11.2404C17.9575 11.7344 18.084 12.2213 18.3314 12.6489C18.5789 13.0764 18.9381 13.4286 19.3705 13.6677C19.7499 12.9631 20.3396 12.3944 21.0575 12.0407C21.7753 11.687 22.5856 11.566 23.3755 11.6944C23.4307 11.33 23.4116 10.9583 23.3192 10.6015C23.2267 10.2448 23.063 9.91047 22.8377 9.61878H22.8422ZM22.9615 12.7778C22.2781 12.7262 21.6004 12.9345 21.0639 13.3611C20.5274 13.7876 20.1718 14.4009 20.068 15.0784V15.0829C20.0116 15.4523 20.0319 15.8294 20.1276 16.1906C20.2233 16.5519 20.3924 16.8895 20.6242 17.1826C20.8561 17.4757 21.1458 17.7179 21.4753 17.8941C21.8049 18.0703 22.1671 18.1769 22.5396 18.207C22.6492 17.4473 22.9833 16.7376 23.499 16.1691C24.0148 15.6007 24.6887 15.1993 25.4342 15.0165C25.3283 14.4221 25.028 13.8798 24.5805 13.4746C24.1329 13.0693 23.5634 12.8243 22.9615 12.7778ZM26.3309 16.0324C25.6115 16.0354 24.9226 16.3236 24.4154 16.8337C23.9082 17.3439 23.624 18.0344 23.6252 18.7538C23.6252 18.8764 23.6331 18.9968 23.6489 19.1138H23.7389C24.4702 19.1139 25.1863 19.3224 25.8034 19.7149C26.4205 20.1074 26.9129 20.6677 27.223 21.33C27.6945 21.168 28.1127 20.8802 28.4324 20.4975C28.7644 20.0994 28.9759 19.6147 29.0419 19.1004C29.108 18.5862 29.0258 18.0638 28.805 17.5946C28.5843 17.1255 28.2342 16.7292 27.7959 16.4522C27.3576 16.1753 26.8493 16.0292 26.3309 16.0313M16.7999 5.94565C16.7763 5.62748 16.6935 5.31652 16.5557 5.02878V5.0344C16.3046 4.50652 15.8813 4.0798 15.3555 3.82438C14.8297 3.56896 14.2326 3.50006 13.6624 3.62899C13.0922 3.75792 12.5829 4.07702 12.2181 4.53382C11.8533 4.99063 11.6548 5.55795 11.6552 6.14253V6.17065C12.2611 6.34348 12.813 6.6678 13.2589 7.11303C13.7047 7.55827 14.0297 8.10973 14.2034 8.7154C14.5608 8.71871 14.9151 8.64758 15.2436 8.50654C15.5721 8.36549 15.8676 8.15763 16.1114 7.89616C16.3552 7.6347 16.5419 7.32535 16.6597 6.9878C16.7774 6.65026 16.8236 6.2919 16.7954 5.93553L16.7999 5.94565ZM12.8849 8.46003C12.662 8.06805 12.3403 7.7413 11.9519 7.51234C11.5634 7.28337 11.1217 7.16018 10.6709 7.15503H10.6427C10.1888 7.15492 9.7429 7.27476 9.35017 7.5024C8.95744 7.73004 8.63184 8.05741 8.40631 8.45136C8.18079 8.84531 8.06336 9.29185 8.06592 9.74577C8.06847 10.1997 8.19092 10.6449 8.42086 11.0363C9.03307 10.8826 9.67438 10.8877 10.2841 11.0511C10.8938 11.2145 11.4517 11.5308 11.905 11.97C12.1998 11.8039 12.4589 11.5813 12.6676 11.3149C12.8764 11.0486 13.0306 10.7437 13.1215 10.4178C13.2123 10.0918 13.2381 9.75117 13.1973 9.41526C13.1566 9.07934 13.05 8.75475 12.8837 8.46003M11.8735 15.0075C11.962 14.4242 11.8468 13.8283 11.5472 13.32C11.3369 12.9637 11.0441 12.663 10.6935 12.4431C10.343 12.2233 9.94475 12.0908 9.53236 12.0567C9.47172 12.0519 9.41093 12.0493 9.35011 12.0488H9.32648C8.75638 12.0485 8.20229 12.2374 7.75102 12.5858C7.29974 12.9341 6.97677 13.4224 6.8327 13.974C6.68862 14.5256 6.73158 15.1094 6.95485 15.6339C7.17812 16.1585 7.56907 16.5942 8.06648 16.8728C8.51777 16.4337 9.07391 16.1173 9.68199 15.9539C10.2901 15.7905 10.9299 15.7853 11.5405 15.939C11.7108 15.6529 11.8242 15.3366 11.8746 15.0075M9.48398 17.2272C9.04415 17.4493 8.67688 17.7923 8.42536 18.216C8.19339 18.6072 8.06912 19.0528 8.06516 19.5076C8.06121 19.9624 8.17771 20.4101 8.40283 20.8053C8.62796 21.2004 8.95368 21.529 9.34689 21.7575C9.74011 21.986 10.1868 22.1063 10.6416 22.1063H10.6697C10.8429 21.5 11.1677 20.9478 11.6136 20.502C12.0594 20.0561 12.6116 19.7313 13.2179 19.5582V19.53C13.218 19.0976 13.1093 18.672 12.9018 18.2926C12.6943 17.9132 12.3946 17.5922 12.0303 17.3591C11.6661 17.126 11.249 16.9883 10.8176 16.9587C10.3862 16.9292 9.95422 17.0087 9.56161 17.19L9.48398 17.2272Z"/>
</mask>
<path d="M26.0057 21.4549C25.7894 21.1291 25.5053 20.8537 25.173 20.6476C24.8406 20.4414 24.4677 20.3093 24.0797 20.2602H24.0741C23.5687 20.1972 23.0558 20.2772 22.5936 20.4912C22.1314 20.7052 21.7386 21.0445 21.4596 21.4707C20.8515 20.994 20.1134 20.7124 19.3424 20.6629C19.5314 20.3029 19.7654 19.9654 20.0399 19.6605C19.3486 19.2082 18.7809 18.5908 18.388 17.8641C17.9952 17.1373 17.7896 16.3241 17.7899 15.498V15.3237C17.0724 14.8076 16.5052 14.11 16.1462 13.3024C15.7871 12.4949 15.6493 11.6064 15.7469 10.728C15.6128 10.7703 15.4774 10.8078 15.3407 10.8405H15.3419C15.123 11.7607 14.6392 12.5966 13.9502 13.2447C14.2236 14.148 14.2236 15.1122 13.9502 16.0155C14.6435 16.6665 15.1295 17.5075 15.3475 18.4332C15.9866 18.5857 16.5881 18.8666 17.1153 19.2588C17.6425 19.651 18.0844 20.1463 18.4142 20.7147C17.6585 20.8493 16.9606 21.2075 16.4106 21.7429C16.1784 21.375 15.8568 21.0719 15.4757 20.862C15.0946 20.652 14.6666 20.5421 14.2315 20.5425H14.2034C13.7941 20.5461 13.3916 20.6475 13.0296 20.8383C12.6675 21.0291 12.3563 21.3038 12.1221 21.6394C11.7513 22.166 11.5921 22.8128 11.6761 23.4514C11.7601 24.0899 12.0811 24.6736 12.5755 25.0864C12.9564 25.406 13.4216 25.6086 13.9151 25.6697C14.4086 25.7308 14.9092 25.6478 15.3565 25.4307C15.4937 25.9808 15.748 26.4837 16.0911 26.9112L15.5702 27.7527C14.9421 27.9338 14.2837 27.9855 13.635 27.9046C12.9863 27.8237 12.3608 27.6118 11.7965 27.2819C11.2321 26.952 10.7406 26.5109 10.3518 25.9854C9.96298 25.4599 9.68497 24.8608 9.53461 24.2247C8.89359 24.0738 8.29027 23.7933 7.76183 23.4003C7.2334 23.0074 6.79105 22.5103 6.46208 21.9399C6.1331 21.3694 5.92447 20.7376 5.84903 20.0834C5.7736 19.4292 5.83297 18.7665 6.02348 18.1362C5.54332 17.6854 5.16063 17.1411 4.89902 16.5367C4.63741 15.9324 4.50244 15.2808 4.50244 14.6222C4.50244 13.9637 4.63741 13.3121 4.89902 12.7077C5.16063 12.1033 5.54332 11.559 6.02348 11.1083C5.83496 10.4786 5.7772 9.81706 5.85374 9.16426C5.93028 8.51146 6.1395 7.8812 6.46856 7.31223C6.79761 6.74326 7.23955 6.24758 7.7672 5.85567C8.29485 5.46377 8.89708 5.1839 9.53686 5.03328C9.68748 4.3935 9.96735 3.79127 10.3593 3.26362C10.7512 2.73597 11.2468 2.29403 11.8158 1.96498C12.3848 1.63592 13.015 1.4267 13.6678 1.35016C14.3206 1.27362 14.9822 1.33138 15.6119 1.5199C16.0624 1.03981 16.6067 0.65723 17.211 0.395811C17.8153 0.134392 18.4668 -0.000310642 19.1252 2.85464e-05C19.8744 -0.00255079 20.6137 0.169697 21.2846 0.503074C21.9554 0.83645 22.5393 1.32176 22.9896 1.9204C24.0224 1.97053 25.014 2.34089 25.8268 2.98008C26.6396 3.61928 27.2333 4.49562 27.5255 5.4875C27.8178 6.47939 27.794 7.53763 27.4575 8.5154C27.1211 9.49316 26.4887 10.342 25.648 10.944C25.6592 11.0498 25.6592 11.1623 25.6592 11.2748V11.4492C26.5028 12.0587 27.1361 12.9153 27.4716 13.9005C28.457 14.1277 29.3496 14.6499 30.0306 15.3975C30.7115 16.1451 31.1483 17.0825 31.2828 18.0848C31.4172 19.087 31.2429 20.1064 30.7831 21.007C30.3232 21.9077 29.5998 22.6467 28.7091 23.1255C28.6846 23.857 28.499 24.5741 28.1654 25.2256C27.8318 25.8771 27.3586 26.4469 26.7793 26.8944C26.2001 27.3419 25.5293 27.6559 24.8147 27.8142C24.1001 27.9725 23.3593 27.9711 22.6454 27.81L22.0919 26.9123C22.417 26.5073 22.6622 26.0348 22.8029 25.5184C23.349 25.7186 23.9449 25.7384 24.5031 25.575C25.0613 25.4116 25.5525 25.0736 25.9045 24.6105C26.2472 24.1603 26.4411 23.6144 26.4593 23.0489C26.4774 22.4833 26.3189 21.9262 26.0057 21.4549ZM20.7902 2.85978C20.5008 2.61444 20.1608 2.43606 19.7945 2.33736C19.4282 2.23866 19.0446 2.22209 18.6711 2.28883C18.2976 2.35558 17.9435 2.50398 17.634 2.72345C17.3245 2.94291 17.0674 3.22802 16.8809 3.5584C17.3239 4.01092 17.6431 4.56986 17.8076 5.18145C17.9721 5.79303 17.9765 6.43666 17.8202 7.0504C18.1632 7.2509 18.5478 7.36948 18.9441 7.3969C18.8349 6.56524 19.0004 5.72066 19.4155 4.99177C19.8306 4.26288 20.4726 3.68962 21.2436 3.35928C21.115 3.17363 20.9626 3.00569 20.7902 2.85978ZM21.6666 4.40103C21.0892 4.65371 20.6174 5.09889 20.3316 5.66061C20.0458 6.22234 19.9638 6.86581 20.0995 7.48128C20.8585 7.36327 21.6355 7.47531 22.3303 7.80295C23.0251 8.13059 23.6058 8.65881 23.9976 9.31953C24.6251 8.99567 25.1022 8.44069 25.3282 7.77173C25.5542 7.10277 25.5115 6.37216 25.209 5.7341C24.9066 5.09604 24.368 4.60046 23.7071 4.35195C23.0462 4.10344 22.3145 4.12144 21.6666 4.40215M22.8422 9.61878C22.4544 9.1159 21.9026 8.76472 21.2828 8.6262C20.663 8.48769 20.0143 8.5706 19.4492 8.86053C19.0093 9.08527 18.6387 9.4255 18.3774 9.84474C18.116 10.264 17.9737 10.7465 17.9656 11.2404C17.9575 11.7344 18.084 12.2213 18.3314 12.6489C18.5789 13.0764 18.9381 13.4286 19.3705 13.6677C19.7499 12.9631 20.3396 12.3944 21.0575 12.0407C21.7753 11.687 22.5856 11.566 23.3755 11.6944C23.4307 11.33 23.4116 10.9583 23.3192 10.6015C23.2267 10.2448 23.063 9.91047 22.8377 9.61878H22.8422ZM22.9615 12.7778C22.2781 12.7262 21.6004 12.9345 21.0639 13.3611C20.5274 13.7876 20.1718 14.4009 20.068 15.0784V15.0829C20.0116 15.4523 20.0319 15.8294 20.1276 16.1906C20.2233 16.5519 20.3924 16.8895 20.6242 17.1826C20.8561 17.4757 21.1458 17.7179 21.4753 17.8941C21.8049 18.0703 22.1671 18.1769 22.5396 18.207C22.6492 17.4473 22.9833 16.7376 23.499 16.1691C24.0148 15.6007 24.6887 15.1993 25.4342 15.0165C25.3283 14.4221 25.028 13.8798 24.5805 13.4746C24.1329 13.0693 23.5634 12.8243 22.9615 12.7778ZM26.3309 16.0324C25.6115 16.0354 24.9226 16.3236 24.4154 16.8337C23.9082 17.3439 23.624 18.0344 23.6252 18.7538C23.6252 18.8764 23.6331 18.9968 23.6489 19.1138H23.7389C24.4702 19.1139 25.1863 19.3224 25.8034 19.7149C26.4205 20.1074 26.9129 20.6677 27.223 21.33C27.6945 21.168 28.1127 20.8802 28.4324 20.4975C28.7644 20.0994 28.9759 19.6147 29.0419 19.1004C29.108 18.5862 29.0258 18.0638 28.805 17.5946C28.5843 17.1255 28.2342 16.7292 27.7959 16.4522C27.3576 16.1753 26.8493 16.0292 26.3309 16.0313M16.7999 5.94565C16.7763 5.62748 16.6935 5.31652 16.5557 5.02878V5.0344C16.3046 4.50652 15.8813 4.0798 15.3555 3.82438C14.8297 3.56896 14.2326 3.50006 13.6624 3.62899C13.0922 3.75792 12.5829 4.07702 12.2181 4.53382C11.8533 4.99063 11.6548 5.55795 11.6552 6.14253V6.17065C12.2611 6.34348 12.813 6.6678 13.2589 7.11303C13.7047 7.55827 14.0297 8.10973 14.2034 8.7154C14.5608 8.71871 14.9151 8.64758 15.2436 8.50654C15.5721 8.36549 15.8676 8.15763 16.1114 7.89616C16.3552 7.6347 16.5419 7.32535 16.6597 6.9878C16.7774 6.65026 16.8236 6.2919 16.7954 5.93553L16.7999 5.94565ZM12.8849 8.46003C12.662 8.06805 12.3403 7.7413 11.9519 7.51234C11.5634 7.28337 11.1217 7.16018 10.6709 7.15503H10.6427C10.1888 7.15492 9.7429 7.27476 9.35017 7.5024C8.95744 7.73004 8.63184 8.05741 8.40631 8.45136C8.18079 8.84531 8.06336 9.29185 8.06592 9.74577C8.06847 10.1997 8.19092 10.6449 8.42086 11.0363C9.03307 10.8826 9.67438 10.8877 10.2841 11.0511C10.8938 11.2145 11.4517 11.5308 11.905 11.97C12.1998 11.8039 12.4589 11.5813 12.6676 11.3149C12.8764 11.0486 13.0306 10.7437 13.1215 10.4178C13.2123 10.0918 13.2381 9.75117 13.1973 9.41526C13.1566 9.07934 13.05 8.75475 12.8837 8.46003M11.8735 15.0075C11.962 14.4242 11.8468 13.8283 11.5472 13.32C11.3369 12.9637 11.0441 12.663 10.6935 12.4431C10.343 12.2233 9.94475 12.0908 9.53236 12.0567C9.47172 12.0519 9.41093 12.0493 9.35011 12.0488H9.32648C8.75638 12.0485 8.20229 12.2374 7.75102 12.5858C7.29974 12.9341 6.97677 13.4224 6.8327 13.974C6.68862 14.5256 6.73158 15.1094 6.95485 15.6339C7.17812 16.1585 7.56907 16.5942 8.06648 16.8728C8.51777 16.4337 9.07391 16.1173 9.68199 15.9539C10.2901 15.7905 10.9299 15.7853 11.5405 15.939C11.7108 15.6529 11.8242 15.3366 11.8746 15.0075M9.48398 17.2272C9.04415 17.4493 8.67688 17.7923 8.42536 18.216C8.19339 18.6072 8.06912 19.0528 8.06516 19.5076C8.06121 19.9624 8.17771 20.4101 8.40283 20.8053C8.62796 21.2004 8.95368 21.529 9.34689 21.7575C9.74011 21.986 10.1868 22.1063 10.6416 22.1063H10.6697C10.8429 21.5 11.1677 20.9478 11.6136 20.502C12.0594 20.0561 12.6116 19.7313 13.2179 19.5582V19.53C13.218 19.0976 13.1093 18.672 12.9018 18.2926C12.6943 17.9132 12.3946 17.5922 12.0303 17.3591C11.6661 17.126 11.249 16.9883 10.8176 16.9587C10.3862 16.9292 9.95422 17.0087 9.56161 17.19L9.48398 17.2272Z" fill="#04075F"/>
<path d="M26.0057 21.4549L25.1727 22.0081L25.1728 22.0083L26.0057 21.4549ZM24.0797 20.2602L24.2053 19.2681L24.1428 19.2602H24.0797V20.2602ZM24.0741 20.2602L23.9505 21.2525L24.012 21.2602H24.0741V20.2602ZM21.4596 21.4707L20.8427 22.2577L21.6998 22.9296L22.2963 22.0183L21.4596 21.4707ZM19.3424 20.6629L18.457 20.1981L17.7408 21.5622L19.2783 21.6609L19.3424 20.6629ZM20.0399 19.6605L20.783 20.3296L21.5637 19.4625L20.5874 18.8237L20.0399 19.6605ZM17.7899 15.498L18.7899 15.4983V15.498H17.7899ZM17.7899 15.3237H18.7899V14.8112L18.3738 14.5119L17.7899 15.3237ZM15.7469 10.728L16.7408 10.8384L16.9101 9.31281L15.4462 9.7743L15.7469 10.728ZM15.3407 10.8405L15.1078 9.86803L15.3407 11.8405V10.8405ZM15.3419 10.8405L16.3147 11.0719L16.6076 9.84053H15.3419V10.8405ZM13.9502 13.2447L13.265 12.5163L12.8136 12.941L12.9931 13.5343L13.9502 13.2447ZM13.9502 16.0155L12.9931 15.7259L12.8134 16.3198L13.2657 16.7445L13.9502 16.0155ZM15.3475 18.4332L14.3741 18.6624L14.5155 19.2627L15.1154 19.4058L15.3475 18.4332ZM18.4142 20.7147L18.5896 21.6991L19.9963 21.4485L19.2791 20.2127L18.4142 20.7147ZM16.4106 21.7429L15.5649 22.2766L16.2237 23.3205L17.1082 22.4594L16.4106 21.7429ZM14.2315 20.5425V21.5425H14.2324L14.2315 20.5425ZM14.2034 20.5425V19.5425L14.1947 19.5426L14.2034 20.5425ZM12.1221 21.6394L12.9398 22.2151L12.9421 22.2117L12.1221 21.6394ZM12.5755 25.0864L13.2183 24.3204L13.2165 24.3188L12.5755 25.0864ZM15.3565 25.4307L16.3267 25.1886L16.0284 23.9929L14.9198 24.531L15.3565 25.4307ZM16.0911 26.9112L16.9414 27.4375L17.3134 26.8364L16.871 26.2852L16.0911 26.9112ZM15.5702 27.7527L15.8473 28.7135L16.2177 28.6067L16.4205 28.279L15.5702 27.7527ZM9.53461 24.2247L10.5078 23.9946L10.3656 23.3929L9.76366 23.2512L9.53461 24.2247ZM6.02348 18.1362L6.98072 18.4255L7.16019 17.8316L6.70788 17.407L6.02348 18.1362ZM4.50244 14.6222H3.50244H4.50244ZM6.02348 11.1083L6.70788 11.8374L7.15889 11.414L6.98147 10.8215L6.02348 11.1083ZM9.53686 5.03328L9.76602 6.00667L10.3684 5.86484L10.5102 5.26244L9.53686 5.03328ZM15.6119 1.5199L15.325 2.47789L15.9177 2.65532L16.341 2.20425L15.6119 1.5199ZM19.1252 2.85464e-05L19.1247 1.00004L19.1287 1.00002L19.1252 2.85464e-05ZM22.9896 1.9204L22.1905 2.52157L22.4725 2.89648L22.9411 2.91923L22.9896 1.9204ZM25.648 10.944L25.0657 10.131L24.5919 10.4703L24.6536 11.0498L25.648 10.944ZM25.6592 11.4492H24.6592V11.9603L25.0735 12.2597L25.6592 11.4492ZM27.4716 13.9005L26.525 14.2229L26.7045 14.7499L27.2469 14.875L27.4716 13.9005ZM28.7091 23.1255L28.2356 22.2448L27.7289 22.5172L27.7097 23.0921L28.7091 23.1255ZM22.6454 27.81L21.7941 28.3348L22.0149 28.693L22.4253 28.7855L22.6454 27.81ZM22.0919 26.9123L21.312 26.2863L20.8703 26.8365L21.2406 27.4371L22.0919 26.9123ZM22.8029 25.5184L23.147 24.5795L22.1242 24.2046L21.838 25.2556L22.8029 25.5184ZM25.9045 24.6105L25.1088 24.0049L25.1084 24.0053L25.9045 24.6105ZM20.7902 2.85978L20.1436 3.62257L20.1441 3.62303L20.7902 2.85978ZM16.8809 3.5584L16.01 3.0668L15.6406 3.72113L16.1663 4.25803L16.8809 3.5584ZM17.8202 7.0504L16.8511 6.80368L16.6653 7.53357L17.3155 7.9137L17.8202 7.0504ZM18.9441 7.3969L18.8751 8.39452L20.0948 8.47892L19.9356 7.26667L18.9441 7.3969ZM21.2436 3.35928L21.6374 4.27846L22.7627 3.79634L22.0657 2.78992L21.2436 3.35928ZM20.0995 7.48128L19.1229 7.69657L19.3251 8.61368L20.2531 8.46941L20.0995 7.48128ZM23.9976 9.31953L23.1375 9.8296L23.6184 10.6406L24.4563 10.2081L23.9976 9.31953ZM22.8422 9.61878V10.6188H24.8764L23.6341 9.00804L22.8422 9.61878ZM19.4492 8.86053L19.9041 9.75107L19.9057 9.75024L19.4492 8.86053ZM19.3705 13.6677L18.8867 14.5428L19.7715 15.032L20.2509 14.1418L19.3705 13.6677ZM23.3755 11.6944L23.215 12.6814L24.2126 12.8437L24.3642 11.8444L23.3755 11.6944ZM22.8377 9.61878V8.61878H20.8021L22.0462 10.23L22.8377 9.61878ZM22.9615 12.7778L23.0385 11.7807L23.0367 11.7806L22.9615 12.7778ZM20.068 15.0784L19.0795 14.927L19.068 15.0023V15.0784H20.068ZM20.068 15.0829L21.0565 15.2337L21.068 15.1587V15.0829H20.068ZM20.6242 17.1826L19.84 17.803L20.6242 17.1826ZM22.5396 18.207L22.4589 19.2038L23.3953 19.2796L23.5294 18.3498L22.5396 18.207ZM25.4342 15.0165L25.6723 15.9878L26.5832 15.7645L26.4187 14.8411L25.4342 15.0165ZM23.6252 18.7538H24.6252L24.6252 18.7521L23.6252 18.7538ZM23.6489 19.1138L22.6578 19.2472L22.7745 20.1138H23.6489V19.1138ZM23.7389 19.1138L23.739 18.1138H23.7389V19.1138ZM27.223 21.33L26.3173 21.754L26.6982 22.5677L27.5479 22.2758L27.223 21.33ZM28.4324 20.4975L29.1998 21.1386L29.2003 21.138L28.4324 20.4975ZM16.7999 5.94565L15.886 6.35177L17.7971 5.87194L16.7999 5.94565ZM16.5557 5.02878L17.4576 4.59682L15.5557 5.02878H16.5557ZM16.5557 5.0344L15.6527 5.46401L17.5557 5.0344H16.5557ZM11.6552 6.14253H12.6552V6.14182L11.6552 6.14253ZM11.6552 6.17065H10.6552V6.9253L11.3809 7.1323L11.6552 6.17065ZM14.2034 8.7154L13.2421 8.99097L13.4478 9.70846L14.1941 9.71536L14.2034 8.7154ZM16.7954 5.93553L17.7092 5.52941L15.7985 6.01461L16.7954 5.93553ZM10.6709 7.15503L10.6823 6.15503H10.6709V7.15503ZM10.6427 7.15503L10.6425 8.15503H10.6427V7.15503ZM8.42086 11.0363L7.55865 11.5428L7.93799 12.1885L8.66432 12.0062L8.42086 11.0363ZM11.905 11.97L11.2091 12.6882L11.7455 13.2079L12.396 12.8412L11.905 11.97ZM11.5472 13.32L12.4087 12.8122L12.4084 12.8117L11.5472 13.32ZM9.53236 12.0567L9.61482 11.06L9.61021 11.0597L9.53236 12.0567ZM9.35011 12.0488L9.35855 11.0488H9.35011V12.0488ZM9.32648 12.0488L9.32603 13.0488H9.32648V12.0488ZM8.06648 16.8728L7.57785 17.7453L8.22899 18.1099L8.76386 17.5895L8.06648 16.8728ZM11.5405 15.939L11.2964 16.9088L12.0188 17.0906L12.3998 16.4504L11.5405 15.939ZM9.48398 17.2272L9.05252 16.325L9.04282 16.3297L9.03322 16.3345L9.48398 17.2272ZM8.42536 18.216L7.56546 17.7056L7.56521 17.706L8.42536 18.216ZM10.6416 22.1063V21.1063H10.6415L10.6416 22.1063ZM10.6697 22.1063V23.1063H11.4242L11.6313 22.3809L10.6697 22.1063ZM13.2179 19.5582L13.4924 20.5197L14.2179 20.3126V19.5582H13.2179ZM13.2179 19.53L12.2179 19.5296V19.53H13.2179ZM9.56161 17.19L9.14235 16.2821L9.13015 16.2879L9.56161 17.19ZM26.8388 20.9017C26.5429 20.4562 26.1545 20.0797 25.7001 19.7978L24.6458 21.4974C24.8561 21.6278 25.0358 21.802 25.1727 22.0081L26.8388 20.9017ZM25.7001 19.7978C25.2457 19.5159 24.7358 19.3352 24.2053 19.2681L23.9541 21.2522C24.1996 21.2833 24.4356 21.3669 24.6458 21.4974L25.7001 19.7978ZM24.0797 19.2602H24.0741V21.2602H24.0797V19.2602ZM24.1978 19.2678C23.5067 19.1817 22.8054 19.2912 22.1735 19.5838L23.0138 21.3987C23.3062 21.2633 23.6307 21.2126 23.9505 21.2525L24.1978 19.2678ZM22.1735 19.5838C21.5415 19.8763 21.0043 20.3403 20.6229 20.923L22.2963 22.0183C22.4728 21.7487 22.7213 21.5341 23.0138 21.3987L22.1735 19.5838ZM22.0765 20.6836C21.3096 20.0825 20.3788 19.7274 19.4064 19.665L19.2783 21.6609C19.848 21.6974 20.3934 21.9055 20.8427 22.2577L22.0765 20.6836ZM20.2278 21.1277C20.3785 20.8406 20.5649 20.5719 20.783 20.3296L19.2967 18.9914C18.9658 19.3589 18.6842 19.7652 18.457 20.1981L20.2278 21.1277ZM20.5874 18.8237C20.0351 18.4624 19.5816 17.9691 19.2677 17.3885L17.5083 18.3396C17.9801 19.2125 18.662 19.9541 19.4923 20.4973L20.5874 18.8237ZM19.2677 17.3885C18.9539 16.8079 18.7897 16.1583 18.7899 15.4983L16.7899 15.4977C16.7896 16.49 17.0365 17.4667 17.5083 18.3396L19.2677 17.3885ZM18.7899 15.498V15.3237H16.7899V15.498H18.7899ZM18.3738 14.5119C17.8004 14.0993 17.3469 13.5417 17.0599 12.8962L15.2324 13.7087C15.6634 14.6783 16.3445 15.5158 17.2059 16.1354L18.3738 14.5119ZM17.0599 12.8962C16.773 12.2507 16.6628 11.5405 16.7408 10.8384L14.753 10.6177C14.6359 11.6723 14.8013 12.7391 15.2324 13.7087L17.0599 12.8962ZM15.4462 9.7743C15.3345 9.8095 15.2217 9.84076 15.1078 9.86803L15.5737 11.813C15.7331 11.7748 15.8911 11.7311 16.0475 11.6818L15.4462 9.7743ZM15.3407 11.8405H15.3419V9.84053H15.3407V11.8405ZM14.369 10.6091C14.1954 11.3391 13.8116 12.0022 13.265 12.5163L14.6354 13.973C15.4668 13.191 16.0506 12.1823 16.3147 11.0719L14.369 10.6091ZM12.9931 13.5343C13.2093 14.2488 13.2093 15.0114 12.9931 15.7259L14.9074 16.3052C15.2379 15.2129 15.2379 14.0473 14.9074 12.955L12.9931 13.5343ZM13.2657 16.7445C13.8156 17.2609 14.2012 17.928 14.3741 18.6624L16.3209 18.2039C16.0578 17.0869 15.4714 16.0721 14.6348 15.2866L13.2657 16.7445ZM15.1154 19.4058C15.6226 19.5269 16.1 19.7498 16.5184 20.0611L17.7122 18.4565C17.0762 17.9833 16.3506 17.6445 15.5796 17.4605L15.1154 19.4058ZM16.5184 20.0611C16.9368 20.3724 17.2876 20.7655 17.5493 21.2166L19.2791 20.2127C18.8813 19.5271 18.3481 18.9296 17.7122 18.4565L16.5184 20.0611ZM18.2388 19.7302C17.2862 19.8999 16.4064 20.3514 15.7131 21.0264L17.1082 22.4594C17.5148 22.0635 18.0309 21.7987 18.5896 21.6991L18.2388 19.7302ZM17.2563 21.2092C16.9339 20.6984 16.4873 20.2775 15.9582 19.9861L14.9932 21.7379C15.2262 21.8662 15.4229 22.0516 15.5649 22.2766L17.2563 21.2092ZM15.9582 19.9861C15.4291 19.6946 14.8347 19.542 14.2306 19.5425L14.2324 21.5425C14.4984 21.5423 14.7602 21.6095 14.9932 21.7379L15.9582 19.9861ZM14.2315 19.5425H14.2034V21.5425H14.2315V19.5425ZM14.1947 19.5426C13.6259 19.5475 13.0665 19.6884 12.5633 19.9536L13.4958 21.7229C13.7167 21.6065 13.9623 21.5446 14.212 21.5425L14.1947 19.5426ZM12.5633 19.9536C12.0601 20.2188 11.6276 20.6006 11.3021 21.0671L12.9421 22.2117C13.085 22.007 13.2749 21.8394 13.4958 21.7229L12.5633 19.9536ZM11.3045 21.0637C10.7892 21.7955 10.5679 22.6944 10.6846 23.5818L12.6676 23.321C12.6163 22.9313 12.7135 22.5365 12.9398 22.2151L11.3045 21.0637ZM10.6846 23.5818C10.8014 24.4692 11.2475 25.2803 11.9345 25.854L13.2165 24.3188C12.9148 24.0669 12.7188 23.7107 12.6676 23.321L10.6846 23.5818ZM11.9327 25.8524C12.4614 26.2961 13.1072 26.5773 13.7922 26.6621L14.0379 24.6773C13.736 24.6399 13.4514 24.516 13.2183 24.3204L11.9327 25.8524ZM13.7922 26.6621C14.4772 26.7469 15.1722 26.6317 15.7931 26.3303L14.9198 24.531C14.6461 24.6639 14.3399 24.7147 14.0379 24.6773L13.7922 26.6621ZM14.3862 25.6727C14.5591 26.3658 14.8795 26.9991 15.3112 27.5371L16.871 26.2852C16.6165 25.9682 16.4283 25.5957 16.3267 25.1886L14.3862 25.6727ZM15.2408 26.3848L14.7199 27.2263L16.4205 28.279L16.9414 27.4375L15.2408 26.3848ZM15.2931 26.7918C14.7951 26.9354 14.2731 26.9764 13.7588 26.9123L13.5113 28.8969C14.2943 28.9946 15.0891 28.9322 15.8473 28.7135L15.2931 26.7918ZM13.7588 26.9123C13.2445 26.8481 12.7486 26.6802 12.3011 26.4186L11.2918 28.1453C11.9731 28.5435 12.7282 28.7992 13.5113 28.8969L13.7588 26.9123ZM12.3011 26.4186C11.8536 26.157 11.464 25.8073 11.1557 25.3907L9.54788 26.5802C10.0172 27.2146 10.6105 27.747 11.2918 28.1453L12.3011 26.4186ZM11.1557 25.3907C10.8474 24.974 10.627 24.4991 10.5078 23.9946L8.56142 24.4547C8.74293 25.2226 9.07853 25.9458 9.54788 26.5802L11.1557 25.3907ZM9.76366 23.2512C9.25559 23.1317 8.77739 22.9093 8.35855 22.5979L7.16512 24.2028C7.80314 24.6772 8.5316 25.0159 9.30556 25.1981L9.76366 23.2512ZM8.35855 22.5979C7.93971 22.2864 7.5891 21.8925 7.32835 21.4403L5.5958 22.4394C5.99301 23.1282 6.52709 23.7283 7.16512 24.2028L8.35855 22.5979ZM7.32835 21.4403C7.06761 20.9882 6.90224 20.4874 6.84245 19.9689L4.85562 20.198C4.94669 20.9878 5.1986 21.7507 5.5958 22.4394L7.32835 21.4403ZM6.84245 19.9689C6.78266 19.4504 6.82972 18.9251 6.98072 18.4255L5.06625 17.8469C4.83622 18.6079 4.76454 19.4081 4.85562 20.198L6.84245 19.9689ZM6.70788 17.407C6.32735 17.0498 6.02406 16.6185 5.81673 16.1395L3.9813 16.934C4.29719 17.6637 4.75929 18.321 5.33908 18.8653L6.70788 17.407ZM5.81673 16.1395C5.60941 15.6605 5.50244 15.1441 5.50244 14.6222H3.50244C3.50244 15.4174 3.66541 16.2042 3.9813 16.934L5.81673 16.1395ZM5.50244 14.6222C5.50244 14.1003 5.60941 13.5839 5.81673 13.105L3.9813 12.3105C3.66541 13.0402 3.50244 13.827 3.50244 14.6222H5.50244ZM5.81673 13.105C6.02406 12.626 6.32735 12.1946 6.70788 11.8374L5.33908 10.3792C4.75929 10.9234 4.29719 11.5807 3.9813 12.3105L5.81673 13.105ZM6.98147 10.8215C6.83205 10.3224 6.78627 9.79809 6.84693 9.28071L4.86054 9.04781C4.76812 9.83603 4.83787 10.6348 5.0655 11.3951L6.98147 10.8215ZM6.84693 9.28071C6.90759 8.76333 7.07342 8.26381 7.33421 7.81287L5.6029 6.81159C5.20559 7.49859 4.95296 8.25959 4.86054 9.04781L6.84693 9.28071ZM7.33421 7.81287C7.59501 7.36192 7.94527 6.96907 8.36346 6.65846L7.17094 5.05289C6.53383 5.52609 6.00022 6.12459 5.6029 6.81159L7.33421 7.81287ZM8.36346 6.65846C8.78166 6.34785 9.25896 6.12604 9.76602 6.00667L9.3077 4.05989C8.5352 4.24176 7.80805 4.57968 7.17094 5.05289L8.36346 6.65846ZM10.5102 5.26244C10.6296 4.75538 10.8514 4.27808 11.162 3.85988L9.55647 2.66736C9.08326 3.30447 8.74534 4.03162 8.56347 4.80412L10.5102 5.26244ZM11.162 3.85988C11.4727 3.44169 11.8655 3.09143 12.3164 2.83064L11.3152 1.09932C10.6282 1.49664 10.0297 2.03025 9.55647 2.66736L11.162 3.85988ZM12.3164 2.83064C12.7674 2.56984 13.2669 2.40401 13.7843 2.34335L13.5514 0.35696C12.7632 0.449376 12.0022 0.702006 11.3152 1.09932L12.3164 2.83064ZM13.7843 2.34335C14.3017 2.28269 14.826 2.32847 15.325 2.47789L15.8987 0.56192C15.1384 0.334292 14.3396 0.264543 13.5514 0.35696L13.7843 2.34335ZM16.341 2.20425C16.698 1.82386 17.1293 1.52074 17.6081 1.31361L16.814 -0.521991C16.0842 -0.20628 15.4269 0.255756 14.8827 0.835558L16.341 2.20425ZM17.6081 1.31361C18.0868 1.10649 18.603 0.99976 19.1247 1.00003L19.1257 -0.999971C18.3306 -1.00038 17.5438 -0.837703 16.814 -0.521991L17.6081 1.31361ZM19.1287 1.00002C19.7222 0.997979 20.308 1.13445 20.8396 1.39859L21.7296 -0.392446C20.9194 -0.795059 20.0265 -1.00308 19.1218 -0.999966L19.1287 1.00002ZM20.8396 1.39859C21.3711 1.66273 21.8337 2.04725 22.1905 2.52157L23.7887 1.31924C23.2449 0.596268 22.5398 0.0101681 21.7296 -0.392446L20.8396 1.39859ZM22.9411 2.91923C23.7666 2.95929 24.5591 3.25528 25.2087 3.76613L26.445 2.19403C25.469 1.42649 24.2783 0.981771 23.0381 0.921579L22.9411 2.91923ZM25.2087 3.76613C25.8583 4.27699 26.3328 4.97737 26.5663 5.77009L28.4848 5.20491C28.1339 4.01386 27.421 2.96157 26.445 2.19403L25.2087 3.76613ZM26.5663 5.77009C26.7998 6.56282 26.7809 7.40858 26.512 8.19003L28.4031 8.84077C28.8071 7.66668 28.8357 6.39595 28.4848 5.20491L26.5663 5.77009ZM26.512 8.19003C26.2431 8.97147 25.7376 9.64984 25.0657 10.131L26.2302 11.757C27.2397 11.0341 27.9991 10.0149 28.4031 8.84077L26.512 8.19003ZM24.6536 11.0498C24.6582 11.0933 24.6592 11.1511 24.6592 11.2748H26.6592C26.6592 11.1734 26.6602 11.0062 26.6424 10.8382L24.6536 11.0498ZM24.6592 11.2748V11.4492H26.6592V11.2748H24.6592ZM25.0735 12.2597C25.7491 12.7479 26.2563 13.4339 26.525 14.2229L28.4182 13.5781C28.0159 12.3968 27.2565 11.3696 26.245 10.6386L25.0735 12.2597ZM27.2469 14.875C28.0341 15.0565 28.7473 15.4737 29.2913 16.0709L30.7699 14.7242C29.952 13.8262 28.8798 13.199 27.6963 12.9261L27.2469 14.875ZM29.2913 16.0709C29.8353 16.6681 30.1842 17.4171 30.2916 18.2177L32.2739 17.9518C32.1124 16.748 31.5877 15.6221 30.7699 14.7242L29.2913 16.0709ZM30.2916 18.2177C30.399 19.0184 30.2598 19.8328 29.8924 20.5523L31.6737 21.4618C32.226 20.38 32.4354 19.1556 32.2739 17.9518L30.2916 18.2177ZM29.8924 20.5523C29.5251 21.2718 28.9471 21.8622 28.2356 22.2448L29.1826 24.0063C30.2524 23.4311 31.1214 22.5435 31.6737 21.4618L29.8924 20.5523ZM27.7097 23.0921C27.6901 23.6765 27.5418 24.2494 27.2753 24.7699L29.0555 25.6814C29.4562 24.8989 29.6792 24.0376 29.7085 23.1589L27.7097 23.0921ZM27.2753 24.7699C27.0088 25.2903 26.6307 25.7456 26.168 26.103L27.3907 27.6857C28.0864 27.1483 28.6549 26.4639 29.0555 25.6814L27.2753 24.7699ZM26.168 26.103C25.7053 26.4605 25.1693 26.7114 24.5984 26.8379L25.0309 28.7906C25.8892 28.6004 26.695 28.2232 27.3907 27.6857L26.168 26.103ZM24.5984 26.8379C24.0275 26.9643 23.4358 26.9632 22.8654 26.8345L22.4253 28.7855C23.2829 28.9789 24.1726 28.9807 25.0309 28.7906L24.5984 26.8379ZM23.4966 27.2852L22.9431 26.3875L21.2406 27.4371L21.7941 28.3348L23.4966 27.2852ZM22.8717 27.5383C23.2808 27.0287 23.5902 26.4331 23.7677 25.7812L21.838 25.2556C21.7343 25.6365 21.5532 25.9859 21.312 26.2863L22.8717 27.5383ZM22.4587 26.4573C23.2056 26.7311 24.0206 26.7582 24.784 26.5347L24.2222 24.6153C23.8692 24.7186 23.4923 24.706 23.147 24.5795L22.4587 26.4573ZM24.784 26.5347C25.5475 26.3113 26.2192 25.849 26.7006 25.2157L25.1084 24.0053C24.8858 24.2982 24.5752 24.5119 24.2222 24.6153L24.784 26.5347ZM26.7002 25.2162C27.1688 24.6006 27.4339 23.8542 27.4587 23.081L25.4598 23.0168C25.4483 23.3746 25.3256 23.72 25.1088 24.0049L26.7002 25.2162ZM27.4587 23.081C27.4835 22.3077 27.2668 21.5459 26.8386 20.9015L25.1728 22.0083C25.371 22.3065 25.4712 22.659 25.4598 23.0168L27.4587 23.081ZM21.4369 2.09699C21.0352 1.75643 20.5632 1.5088 20.0546 1.37179L19.5344 3.30293C19.7585 3.36332 19.9665 3.47246 20.1436 3.62257L21.4369 2.09699ZM20.0546 1.37179C19.5461 1.23478 19.0136 1.21178 18.4952 1.30443L18.847 3.27324C19.0755 3.2324 19.3102 3.24254 19.5344 3.30293L20.0546 1.37179ZM18.4952 1.30443C17.9767 1.39708 17.4851 1.60309 17.0556 1.90774L18.2125 3.53915C18.4018 3.40487 18.6185 3.31407 18.847 3.27324L18.4952 1.30443ZM17.0556 1.90774C16.626 2.2124 16.2689 2.60818 16.01 3.0668L17.7517 4.05001C17.8658 3.84787 18.0231 3.67343 18.2125 3.53915L17.0556 1.90774ZM16.1663 4.25803C16.4894 4.58791 16.722 4.99538 16.842 5.44122L18.7733 4.92167C18.5642 4.14435 18.1585 3.43393 17.5954 2.85878L16.1663 4.25803ZM16.842 5.44122C16.9619 5.88706 16.9651 6.35627 16.8511 6.80368L18.7893 7.29712C18.9879 6.51705 18.9824 5.69899 18.7733 4.92167L16.842 5.44122ZM17.3155 7.9137C17.7914 8.19192 18.3251 8.35647 18.8751 8.39452L19.0131 6.39929C18.7705 6.3825 18.5349 6.30988 18.3249 6.18711L17.3155 7.9137ZM19.9356 7.26667C19.8547 6.65117 19.9773 6.0261 20.2845 5.48666L18.5466 4.49688C18.0236 5.41522 17.815 6.47931 17.9526 7.52713L19.9356 7.26667ZM20.2845 5.48666C20.5917 4.94721 21.0668 4.52295 21.6374 4.27846L20.8498 2.44009C19.8784 2.85629 19.0696 3.57855 18.5466 4.49688L20.2845 5.48666ZM22.0657 2.78992C21.8872 2.5322 21.6756 2.29907 21.4363 2.09653L20.1441 3.62303C20.2496 3.7123 20.3428 3.81505 20.4215 3.92864L22.0657 2.78992ZM21.2657 3.48492C20.4762 3.83042 19.8311 4.43911 19.4403 5.20716L21.2229 6.11406C21.4037 5.75867 21.7022 5.47701 22.0675 5.31714L21.2657 3.48492ZM19.4403 5.20716C19.0496 5.97521 18.9374 6.85504 19.1229 7.69657L21.076 7.26598C20.9902 6.87658 21.0421 6.46946 21.2229 6.11406L19.4403 5.20716ZM20.2531 8.46941C20.8147 8.38209 21.3897 8.46499 21.9038 8.70743L22.7568 6.89848C21.8813 6.48563 20.9023 6.34446 19.9459 6.49315L20.2531 8.46941ZM21.9038 8.70743C22.4179 8.94986 22.8476 9.34071 23.1375 9.8296L24.8577 8.80946C24.364 7.97692 23.6323 7.31132 22.7568 6.89848L21.9038 8.70743ZM24.4563 10.2081C25.3142 9.76533 25.9665 9.00651 26.2756 8.09183L24.3808 7.45163C24.2378 7.87488 23.9359 8.22601 23.539 8.43091L24.4563 10.2081ZM26.2756 8.09183C26.5846 7.17715 26.5262 6.17817 26.1126 5.30576L24.3054 6.16244C24.4968 6.56614 24.5238 7.02839 24.3808 7.45163L26.2756 8.09183ZM26.1126 5.30576C25.6991 4.43334 24.9628 3.75572 24.059 3.41593L23.3552 5.28797C23.7733 5.4452 24.114 5.75875 24.3054 6.16244L26.1126 5.30576ZM24.059 3.41593C23.1553 3.07613 22.155 3.10075 21.2691 3.48457L22.0642 5.31973C22.4741 5.14213 22.937 5.13074 23.3552 5.28797L24.059 3.41593ZM23.6341 9.00804C23.1035 8.32013 22.3488 7.83975 21.5009 7.65028L21.0647 9.60213C21.4565 9.68968 21.8052 9.91166 22.0504 10.2295L23.6341 9.00804ZM21.5009 7.65028C20.6531 7.46081 19.7657 7.57421 18.9927 7.97081L19.9057 9.75024C20.2629 9.56699 20.673 9.51458 21.0647 9.60213L21.5009 7.65028ZM18.9943 7.96999C18.3928 8.27728 17.8861 8.74247 17.5288 9.31571L19.226 10.3738C19.3914 10.1085 19.6258 9.89326 19.9041 9.75107L18.9943 7.96999ZM17.5288 9.31571C17.1714 9.88895 16.9768 10.5486 16.9657 11.2241L18.9654 11.2568C18.9706 10.9443 19.0606 10.639 19.226 10.3738L17.5288 9.31571ZM16.9657 11.2241C16.9546 11.8995 17.1276 12.5652 17.466 13.1498L19.1969 12.1479C19.0403 11.8774 18.9603 11.5693 18.9654 11.2568L16.9657 11.2241ZM17.466 13.1498C17.8044 13.7344 18.2955 14.216 18.8867 14.5428L19.8543 12.7925C19.5808 12.6413 19.3535 12.4184 19.1969 12.1479L17.466 13.1498ZM20.2509 14.1418C20.5317 13.6204 20.9682 13.1995 21.4995 12.9377L20.6155 11.1437C19.7111 11.5893 18.9681 12.3058 18.49 13.1935L20.2509 14.1418ZM21.4995 12.9377C22.0307 12.676 22.6304 12.5864 23.215 12.6814L23.536 10.7074C22.5408 10.5455 21.5199 10.6981 20.6155 11.1437L21.4995 12.9377ZM24.3642 11.8444C24.4397 11.3464 24.4135 10.8383 24.2872 10.3507L22.3511 10.8523C22.4097 11.0782 22.4218 11.3137 22.3868 11.5444L24.3642 11.8444ZM24.2872 10.3507C24.1609 9.86316 23.9371 9.40625 23.6292 9.00761L22.0462 10.23C22.1889 10.4147 22.2926 10.6264 22.3511 10.8523L24.2872 10.3507ZM22.8377 10.6188H22.8422V8.61878H22.8377V10.6188ZM23.0367 11.7806C22.102 11.7101 21.1752 11.995 20.4416 12.5783L21.6863 14.1438C22.0255 13.8741 22.4541 13.7423 22.8863 13.7749L23.0367 11.7806ZM20.4416 12.5783C19.7079 13.1617 19.2214 14.0005 19.0795 14.927L21.0564 15.2298C21.1221 14.8014 21.347 14.4136 21.6863 14.1438L20.4416 12.5783ZM19.068 15.0784V15.0829H21.068V15.0784H19.068ZM19.0794 14.9321C19.0024 15.4372 19.0301 15.9528 19.161 16.4467L21.0943 15.9345C21.0337 15.706 21.0209 15.4674 21.0565 15.2337L19.0794 14.9321ZM19.161 16.4467C19.2918 16.9406 19.523 17.4023 19.84 17.803L21.4085 16.5621C21.2618 16.3767 21.1548 16.1631 21.0943 15.9345L19.161 16.4467ZM19.84 17.803C20.157 18.2037 20.5531 18.5349 21.0037 18.7759L21.947 17.0123C21.7385 16.9008 21.5552 16.7476 21.4085 16.5621L19.84 17.803ZM21.0037 18.7759C21.4543 19.0169 21.9496 19.1625 22.4589 19.2038L22.6203 17.2103C22.3847 17.1912 22.1555 17.1238 21.947 17.0123L21.0037 18.7759ZM23.5294 18.3498C23.6105 17.7873 23.8578 17.2619 24.2397 16.8411L22.7584 15.4972C22.1087 16.2133 21.6879 17.1073 21.5498 18.0643L23.5294 18.3498ZM24.2397 16.8411C24.6215 16.4202 25.1204 16.1231 25.6723 15.9878L25.1961 14.0453C24.257 14.2755 23.4081 14.7811 22.7584 15.4972L24.2397 16.8411ZM26.4187 14.8411C26.274 14.0286 25.8634 13.2872 25.2516 12.7332L23.9093 14.2159C24.1926 14.4724 24.3827 14.8157 24.4497 15.1919L26.4187 14.8411ZM25.2516 12.7332C24.6398 12.1793 23.8613 11.8443 23.0385 11.7807L22.8845 13.7748C23.2655 13.8042 23.626 13.9594 23.9093 14.2159L25.2516 12.7332ZM26.3267 15.0324C25.3425 15.0365 24.4002 15.4307 23.7063 16.1287L25.1246 17.5388C25.4451 17.2164 25.8804 17.0343 26.335 17.0324L26.3267 15.0324ZM23.7063 16.1287C23.0124 16.8266 22.6236 17.7713 22.6252 18.7554L24.6252 18.7521C24.6245 18.2975 24.804 17.8612 25.1246 17.5388L23.7063 16.1287ZM22.6252 18.7538C22.6252 18.9191 22.6358 19.0841 22.6578 19.2472L24.6399 18.9804C24.6304 18.9095 24.6252 18.8337 24.6252 18.7538H22.6252ZM23.6489 20.1138H23.7389V18.1138H23.6489V20.1138ZM23.7387 20.1138C24.28 20.1138 24.81 20.2682 25.2667 20.5587L26.3401 18.8711C25.5627 18.3766 24.6604 18.1139 23.739 18.1138L23.7387 20.1138ZM25.2667 20.5587C25.7234 20.8492 26.0878 21.2638 26.3173 21.754L28.1287 20.906C27.738 20.0716 27.1176 19.3657 26.3401 18.8711L25.2667 20.5587ZM27.5479 22.2758C28.1919 22.0545 28.7632 21.6613 29.1998 21.1386L27.6649 19.8564C27.4622 20.099 27.1971 20.2816 26.8981 20.3843L27.5479 22.2758ZM29.2003 21.138C29.6544 20.5936 29.9435 19.9309 30.0338 19.2278L28.0501 18.9731C28.0083 19.2984 27.8745 19.6051 27.6644 19.857L29.2003 21.138ZM30.0338 19.2278C30.1241 18.5246 30.0117 17.8103 29.7099 17.1689L27.9002 18.0204C28.0398 18.3172 28.0918 18.6477 28.0501 18.9731L30.0338 19.2278ZM29.7099 17.1689C29.408 16.5274 28.9293 15.9855 28.3301 15.6068L27.2617 17.2976C27.539 17.4728 27.7605 17.7236 27.9002 18.0204L29.7099 17.1689ZM28.3301 15.6068C27.7308 15.2282 27.0358 15.0285 26.3269 15.0313L26.3348 17.0313C26.6628 17.03 26.9844 17.1224 27.2617 17.2976L28.3301 15.6068ZM17.7971 5.87194C17.7644 5.42945 17.6493 4.99699 17.4576 4.59682L15.6538 5.46073C15.7378 5.63605 15.7882 5.82551 15.8026 6.01937L17.7971 5.87194ZM15.5557 5.02878V5.0344H17.5557V5.02878H15.5557ZM17.4587 4.60479C17.1101 3.87192 16.5224 3.27948 15.7924 2.92488L14.9186 4.72388C15.2402 4.88011 15.4991 5.14112 15.6527 5.46401L17.4587 4.60479ZM15.7924 2.92488C15.0624 2.57028 14.2334 2.47462 13.4418 2.65362L13.883 4.60437C14.2317 4.5255 14.5969 4.56765 14.9186 4.72388L15.7924 2.92488ZM13.4418 2.65362C12.6502 2.83262 11.9431 3.27563 11.4367 3.90982L12.9995 5.15782C13.2226 4.87841 13.5342 4.68323 13.883 4.60437L13.4418 2.65362ZM11.4367 3.90982C10.9302 4.54402 10.6547 5.33165 10.6552 6.14324L12.6552 6.14182C12.655 5.78425 12.7764 5.43724 12.9995 5.15782L11.4367 3.90982ZM10.6552 6.14253V6.17065H12.6552V6.14253H10.6552ZM11.3809 7.1323C11.8235 7.25853 12.2266 7.49541 12.5522 7.82061L13.9655 6.40546C13.3995 5.84019 12.6988 5.42843 11.9295 5.20901L11.3809 7.1323ZM12.5522 7.82061C12.8778 8.1458 13.1153 8.54859 13.2421 8.99097L15.1646 8.43984C14.9442 7.67087 14.5315 6.97073 13.9655 6.40546L12.5522 7.82061ZM14.1941 9.71536C14.6903 9.71995 15.1821 9.62121 15.6381 9.42542L14.8491 7.58765C14.6481 7.67395 14.4313 7.71747 14.2126 7.71545L14.1941 9.71536ZM15.6381 9.42542C16.0941 9.22963 16.5044 8.94108 16.8428 8.57812L15.38 7.2142C15.2309 7.37418 15.05 7.50136 14.8491 7.58765L15.6381 9.42542ZM16.8428 8.57812C17.1812 8.21516 17.4404 7.78574 17.6039 7.31718L15.7155 6.65843C15.6434 6.86496 15.5292 7.05423 15.38 7.2142L16.8428 8.57812ZM17.6039 7.31718C17.7673 6.84861 17.8315 6.35115 17.7922 5.85645L15.7985 6.01461C15.8158 6.23265 15.7875 6.45191 15.7155 6.65843L17.6039 7.31718ZM15.8815 6.34165L15.886 6.35177L17.7137 5.53953L17.7092 5.52941L15.8815 6.34165ZM13.7542 7.96576C13.4449 7.42189 12.9986 6.96854 12.4596 6.65085L11.4441 8.37382C11.682 8.51406 11.879 8.7142 12.0155 8.9543L13.7542 7.96576ZM12.4596 6.65085C11.9207 6.33317 11.3079 6.16224 10.6823 6.15509L10.6594 8.15496C10.9356 8.15812 11.2061 8.23357 11.4441 8.37382L12.4596 6.65085ZM10.6709 6.15503H10.6427V8.15503H10.6709V6.15503ZM10.643 6.15503C10.0128 6.15488 9.39385 6.32123 8.84868 6.63723L9.85166 8.36756C10.0919 8.22828 10.3648 8.15496 10.6425 8.15503L10.643 6.15503ZM8.84868 6.63723C8.30351 6.95324 7.85152 7.40768 7.53846 7.95454L9.27417 8.94817C9.41215 8.70714 9.61137 8.50684 9.85166 8.36756L8.84868 6.63723ZM7.53846 7.95454C7.2254 8.5014 7.06239 9.12128 7.06593 9.7514L9.0659 9.74015C9.06434 9.46242 9.13619 9.18921 9.27417 8.94817L7.53846 7.95454ZM7.06593 9.7514C7.06948 10.3815 7.23945 10.9995 7.55865 11.5428L9.28307 10.5297C9.14238 10.2903 9.06746 10.0179 9.0659 9.74015L7.06593 9.7514ZM8.66432 12.0062C9.11148 11.8939 9.57989 11.8977 10.0252 12.017L10.5429 10.0852C9.76887 9.87774 8.95466 9.87126 8.17739 10.0664L8.66432 12.0062ZM10.0252 12.017C10.4705 12.1364 10.878 12.3674 11.2091 12.6882L12.6009 11.2519C12.0253 10.6942 11.317 10.2926 10.5429 10.0852L10.0252 12.017ZM12.396 12.8412C12.8052 12.6105 13.165 12.3015 13.4547 11.9317L11.8805 10.6981C11.7528 10.861 11.5943 10.9972 11.4139 11.0989L12.396 12.8412ZM13.4547 11.9317C13.7445 11.562 13.9585 11.1388 14.0847 10.6864L12.1582 10.1492C12.1026 10.3486 12.0082 10.5351 11.8805 10.6981L13.4547 11.9317ZM14.0847 10.6864C14.2109 10.2339 14.2467 9.76102 14.1901 9.29471L12.2046 9.5358C12.2296 9.74132 12.2138 9.94975 12.1582 10.1492L14.0847 10.6864ZM14.1901 9.29471C14.1334 8.82841 13.9855 8.37783 13.7547 7.96871L12.0128 8.95135C12.1145 9.13167 12.1797 9.33027 12.2046 9.5358L14.1901 9.29471ZM12.8622 15.1576C12.9852 14.3469 12.8251 13.5186 12.4087 12.8122L10.6858 13.8278C10.8685 14.1379 10.9388 14.5015 10.8848 14.8574L12.8622 15.1576ZM12.4084 12.8117C12.1167 12.3176 11.7109 11.9007 11.2248 11.5959L10.1623 13.2904C10.3774 13.4252 10.557 13.6097 10.6861 13.8284L12.4084 12.8117ZM11.2248 11.5959C10.7387 11.2911 10.1866 11.1074 9.61482 11.0601L9.44989 13.0532C9.70291 13.0742 9.94721 13.1555 10.1623 13.2904L11.2248 11.5959ZM9.61021 11.0597C9.52647 11.0532 9.44253 11.0495 9.35855 11.0488L9.34167 13.0487C9.37933 13.0491 9.41696 13.0507 9.45451 13.0536L9.61021 11.0597ZM9.35011 11.0488H9.32648V13.0488H9.35011V11.0488ZM9.32693 11.0488C8.53554 11.0484 7.76637 11.3106 7.13993 11.7942L8.3621 13.3773C8.63821 13.1642 8.97722 13.0486 9.32603 13.0488L9.32693 11.0488ZM7.13993 11.7942C6.51349 12.2778 6.06516 12.9555 5.86516 13.7213L7.80024 14.2267C7.88839 13.8892 8.086 13.5905 8.3621 13.3773L7.13993 11.7942ZM5.86516 13.7213C5.66516 14.487 5.7248 15.2974 6.03472 16.0256L7.87498 15.2423C7.73837 14.9214 7.71209 14.5642 7.80024 14.2267L5.86516 13.7213ZM6.03472 16.0256C6.34465 16.7538 6.88737 17.3586 7.57785 17.7453L8.55512 16.0003C8.25078 15.8298 8.01158 15.5633 7.87498 15.2423L6.03472 16.0256ZM8.76386 17.5895C9.09284 17.2694 9.49827 17.0388 9.94156 16.9196L9.42242 14.9882C8.64955 15.1959 7.94269 15.598 7.36911 16.1561L8.76386 17.5895ZM9.94156 16.9196C10.3849 16.8005 10.8513 16.7967 11.2964 16.9088L11.7846 14.9693C11.0085 14.7739 10.1953 14.7804 9.42242 14.9882L9.94156 16.9196ZM12.3998 16.4504C12.6359 16.0537 12.7932 15.6152 12.8631 15.1589L10.8861 14.8561C10.8552 15.058 10.7856 15.2521 10.6811 15.4276L12.3998 16.4504ZM9.03322 16.3345C8.4234 16.6425 7.91419 17.1181 7.56546 17.7056L9.28525 18.7265C9.43957 18.4665 9.6649 18.2561 9.93475 18.1198L9.03322 16.3345ZM7.56521 17.706C7.24321 18.249 7.07069 18.8676 7.0652 19.4989L9.06512 19.5163C9.06755 19.2381 9.14358 18.9654 9.28551 18.7261L7.56521 17.706ZM7.0652 19.4989C7.05971 20.1302 7.22143 20.7517 7.53394 21.3003L9.27173 20.3103C9.13399 20.0685 9.0627 19.7946 9.06512 19.5163L7.0652 19.4989ZM7.53394 21.3003C7.84645 21.8488 8.2986 22.3049 8.84445 22.6221L9.84934 20.8929C9.60875 20.7531 9.40946 20.5521 9.27173 20.3103L7.53394 21.3003ZM8.84445 22.6221C9.3903 22.9393 10.0104 23.1063 10.6417 23.1063L10.6415 21.1063C10.3632 21.1063 10.0899 21.0327 9.84934 20.8929L8.84445 22.6221ZM10.6416 23.1063H10.6697V21.1063H10.6416V23.1063ZM11.6313 22.3809C11.7578 21.938 11.995 21.5347 12.3207 21.2091L10.9064 19.7949C10.3404 20.3609 9.92797 21.0619 9.70817 21.8317L11.6313 22.3809ZM12.3207 21.2091C12.6463 20.8834 13.0496 20.6462 13.4924 20.5197L12.9433 18.5966C12.1735 18.8164 11.4725 19.2288 10.9064 19.7949L12.3207 21.2091ZM14.2179 19.5582V19.53H12.2179V19.5582H14.2179ZM14.2179 19.5304C14.2181 18.9301 14.0672 18.3394 13.7791 17.8127L12.0245 18.7725C12.1515 19.0047 12.218 19.265 12.2179 19.5296L14.2179 19.5304ZM13.7791 17.8127C13.4911 17.2861 13.075 16.8404 12.5694 16.5168L11.4913 18.2013C11.7141 18.344 11.8975 18.5404 12.0245 18.7725L13.7791 17.8127ZM12.5694 16.5168C12.0638 16.1932 11.4848 16.0021 10.8859 15.9611L10.7493 17.9564C11.0133 17.9745 11.2684 18.0587 11.4913 18.2013L12.5694 16.5168ZM10.8859 15.9611C10.287 15.9201 9.68741 16.0305 9.14239 16.2821L9.98082 18.0979C10.221 17.987 10.4853 17.9383 10.7493 17.9564L10.8859 15.9611ZM9.13015 16.2879L9.05252 16.325L9.91544 18.1293L9.99307 18.0922L9.13015 16.2879Z" fill="#04075F" mask="url(#path-2-inside-1_1274_11083)"/>
<path d="M19.0916 21.78C19.8555 21.78 20.5451 22.095 21.0401 22.6013C21.3292 22.8964 21.547 23.2536 21.677 23.6457C21.8071 24.0377 21.8459 24.4543 21.7905 24.8637C21.7409 25.2363 21.6146 25.5946 21.4196 25.916C21.2247 26.2375 20.9652 26.515 20.6576 26.7312L23.6929 31.6463C24.1991 32.4788 23.7154 33.6263 22.7479 33.7388C22.7141 33.75 22.6691 33.75 22.6241 33.75C22.1798 33.75 21.957 33.5104 21.7354 33.2719C21.5126 33.0323 21.291 32.7938 20.8466 32.7938C20.409 32.7938 20.1896 33.0312 19.9691 33.2697C19.7486 33.5093 19.5259 33.75 19.0804 33.75C18.6428 33.75 18.4234 33.5127 18.2029 33.2742C17.9824 33.0345 17.7596 32.7938 17.3141 32.7938C16.8765 32.7938 16.6571 33.0312 16.4366 33.2697C16.2161 33.5093 15.9934 33.75 15.5479 33.75H15.4129C14.4454 33.6375 13.9616 32.49 14.4791 31.6575L17.5256 26.73C16.9489 26.3257 16.5515 25.7134 16.4172 25.022C16.2829 24.3305 16.4222 23.614 16.8056 23.0232C17.0327 22.6722 17.3375 22.3782 17.6965 22.1639C18.0554 21.9497 18.4589 21.8211 18.8756 21.7879L18.9161 21.7857C18.9678 21.7823 19.0196 21.7804 19.0714 21.78H19.0916Z" fill="#04075F"/>
</g>
</svg>
