<svg width="24" height="24" viewBox="0 0 24 24" fill="none" xmlns="http://www.w3.org/2000/svg">
<mask id="mask0_1274_10800" style="mask-type:luminance" maskUnits="userSpaceOnUse" x="0" y="0" width="24" height="24">
<path d="M0 0H24V24H0V0Z" fill="white"/>
</mask>
<g mask="url(#mask0_1274_10800)">
<mask id="path-2-inside-1_1274_10800" fill="white">
<path d="M17.337 14.3033C17.1927 14.0861 17.0034 13.9025 16.7818 13.7651C16.5602 13.6276 16.3117 13.5395 16.053 13.5068H16.0492C15.7123 13.4648 15.3704 13.5182 15.0622 13.6608C14.7541 13.8035 14.4922 14.0297 14.3062 14.3138C13.9008 13.996 13.4088 13.8083 12.8947 13.7753C13.0207 13.5353 13.1767 13.3103 13.3597 13.107C12.8989 12.8055 12.5204 12.3939 12.2585 11.9094C11.9966 11.4249 11.8596 10.8828 11.8597 10.332V10.2158C11.3815 9.87172 11.0033 9.40667 10.7639 8.8683C10.5246 8.32993 10.4327 7.7376 10.4977 7.15202C10.4084 7.18018 10.3181 7.2052 10.227 7.22702H10.2277C10.0818 7.84048 9.75928 8.39771 9.29999 8.82977C9.48224 9.43202 9.48224 10.0748 9.29999 10.677C9.76217 11.111 10.0862 11.6716 10.2315 12.2888C10.6576 12.3905 11.0586 12.5777 11.41 12.8392C11.7615 13.1007 12.0561 13.4309 12.276 13.8098C11.7722 13.8995 11.3069 14.1383 10.9402 14.4953C10.7855 14.25 10.571 14.0479 10.317 13.908C10.0629 13.768 9.77754 13.6948 9.48749 13.695H9.46874C9.1959 13.6974 8.92759 13.765 8.68621 13.8922C8.44483 14.0194 8.2374 14.2025 8.08124 14.4263C7.83405 14.7773 7.72791 15.2085 7.7839 15.6343C7.83989 16.06 8.05392 16.449 8.38349 16.7243C8.63742 16.9374 8.94758 17.0724 9.27656 17.1131C9.60554 17.1539 9.93927 17.0985 10.2375 16.9538C10.329 17.3205 10.4985 17.6558 10.7272 17.9408L10.38 18.5018C9.96124 18.6225 9.52233 18.657 9.08986 18.603C8.6574 18.5491 8.2404 18.4079 7.86414 18.188C7.48789 17.968 7.16023 17.674 6.90103 17.3236C6.64183 16.9733 6.45648 16.5739 6.35624 16.1498C5.9289 16.0492 5.52668 15.8622 5.17439 15.6002C4.8221 15.3382 4.52721 15.0069 4.30789 14.6266C4.08857 14.2463 3.94948 13.8251 3.89919 13.3889C3.8489 12.9528 3.88848 12.511 4.01549 12.0908C3.69538 11.7903 3.44025 11.4274 3.26585 11.0245C3.09144 10.6216 3.00146 10.1872 3.00146 9.74814C3.00146 9.3091 3.09144 8.87472 3.26585 8.47181C3.44025 8.06889 3.69538 7.706 4.01549 7.40552C3.88981 6.98575 3.8513 6.54471 3.90233 6.10951C3.95335 5.67431 4.09284 5.25414 4.31221 4.87482C4.53158 4.4955 4.8262 4.16506 5.17797 3.90378C5.52974 3.64251 5.93122 3.45593 6.35774 3.35552C6.45816 2.929 6.64473 2.52752 6.90601 2.17575C7.16728 1.82398 7.49773 1.52936 7.87704 1.30999C8.25636 1.09061 8.67653 0.95113 9.11173 0.900104C9.54693 0.849078 9.98797 0.887589 10.4077 1.01327C10.7081 0.693206 11.071 0.438153 11.4738 0.263874C11.8767 0.0895947 12.311 -0.000207095 12.75 1.90309e-05C13.2494 -0.00170053 13.7423 0.113131 14.1896 0.335382C14.6368 0.557634 15.026 0.881173 15.3262 1.28027C16.0148 1.31369 16.6759 1.56059 17.2177 1.98672C17.7596 2.41285 18.1554 2.99708 18.3502 3.65833C18.545 4.31959 18.5292 5.02509 18.3049 5.67693C18.0806 6.32878 17.6589 6.89464 17.0985 7.29602C17.106 7.36652 17.106 7.44152 17.106 7.51652V7.63277C17.6684 8.03916 18.0906 8.61023 18.3142 9.26702C18.9711 9.41848 19.5663 9.76663 20.0202 10.265C20.4742 10.7634 20.7654 11.3884 20.855 12.0565C20.9446 12.7247 20.8284 13.4043 20.5219 14.0047C20.2153 14.6051 19.733 15.0978 19.1392 15.417C19.1229 15.9047 18.9992 16.3828 18.7768 16.8171C18.5544 17.2514 18.2389 17.6313 17.8527 17.9296C17.4666 18.2279 17.0194 18.4373 16.543 18.5428C16.0666 18.6483 15.5727 18.6474 15.0967 18.54L14.7277 17.9415C14.9445 17.6715 15.108 17.3565 15.2017 17.0123C15.5658 17.1457 15.9631 17.1589 16.3352 17.05C16.7074 16.9411 17.0348 16.7157 17.2695 16.407C17.498 16.1069 17.6272 15.743 17.6393 15.3659C17.6514 14.9889 17.5458 14.6175 17.337 14.3033ZM13.86 1.90652C13.6671 1.74296 13.4404 1.62404 13.1962 1.55824C12.952 1.49244 12.6962 1.4814 12.4472 1.52589C12.1982 1.57038 11.9622 1.66932 11.7559 1.81563C11.5495 1.96194 11.3781 2.15202 11.2537 2.37227C11.5491 2.67395 11.7619 3.04658 11.8716 3.4543C11.9813 3.86202 11.9842 4.29111 11.88 4.70027C12.1086 4.83393 12.365 4.91299 12.6292 4.93127C12.5564 4.37683 12.6668 3.81377 12.9435 3.32785C13.2203 2.84192 13.6482 2.45975 14.1622 2.23952C14.0765 2.11575 13.9749 2.00379 13.86 1.90652ZM14.4442 2.93402C14.0593 3.10247 13.7448 3.39926 13.5543 3.77374C13.3637 4.14822 13.309 4.57721 13.3995 4.98752C13.9055 4.90885 14.4235 4.98354 14.8867 5.20197C15.3499 5.42039 15.737 5.77254 15.9982 6.21302C16.4166 5.99711 16.7346 5.62713 16.8853 5.18115C17.036 4.73518 17.0075 4.2481 16.8059 3.82273C16.6042 3.39736 16.2452 3.06697 15.8046 2.9013C15.3639 2.73562 14.8762 2.74763 14.4442 2.93477M15.228 6.41252C14.9694 6.07726 14.6016 5.84314 14.1884 5.7508C13.7752 5.65846 13.3427 5.71373 12.966 5.90702C12.6727 6.05685 12.4257 6.28366 12.2514 6.56316C12.0772 6.84266 11.9823 7.1643 11.9769 7.49362C11.9715 7.82294 12.0558 8.14752 12.2208 8.43257C12.3858 8.71763 12.6252 8.95241 12.9135 9.11177C13.1665 8.64206 13.5596 8.26291 14.0382 8.02713C14.5167 7.79134 15.0569 7.71064 15.5835 7.79627C15.6203 7.55337 15.6076 7.30551 15.5459 7.06768C15.4843 6.82985 15.3751 6.60698 15.225 6.41252H15.228ZM15.3075 8.51852C14.8519 8.48415 14.4001 8.62303 14.0424 8.90739C13.6848 9.19175 13.4477 9.60063 13.3785 10.0523V10.0553C13.3409 10.3015 13.3545 10.5529 13.4183 10.7937C13.4821 11.0346 13.5948 11.2597 13.7493 11.4551C13.9039 11.6504 14.097 11.8119 14.3167 11.9294C14.5364 12.0469 14.7779 12.1179 15.0262 12.138C15.0993 11.6315 15.322 11.1584 15.6659 10.7794C16.0097 10.4004 16.459 10.1329 16.956 10.011C16.8854 9.61476 16.6852 9.25317 16.3868 8.98304C16.0884 8.7129 15.7088 8.5495 15.3075 8.51852ZM17.5537 10.6883C17.0741 10.6903 16.6149 10.8824 16.2768 11.2225C15.9386 11.5626 15.7492 12.0229 15.75 12.5025C15.75 12.5843 15.7552 12.6645 15.7657 12.7425H15.8257C16.3133 12.7426 16.7907 12.8816 17.2021 13.1433C17.6135 13.4049 17.9418 13.7785 18.1485 14.22C18.4628 14.112 18.7417 13.9201 18.9547 13.665C19.1761 13.3996 19.3171 13.0764 19.3611 12.7336C19.4051 12.3908 19.3503 12.0425 19.2032 11.7298C19.056 11.417 18.8226 11.1528 18.5304 10.9681C18.2382 10.7835 17.8994 10.6862 17.5537 10.6875M11.1997 3.96377C11.1841 3.75166 11.1289 3.54434 11.037 3.35252V3.35627C10.8696 3.00435 10.5874 2.71986 10.2368 2.54959C9.88628 2.37931 9.48822 2.33337 9.1081 2.41933C8.72798 2.50528 8.38842 2.71801 8.14523 3.02255C7.90205 3.32709 7.76972 3.7053 7.76999 4.09502V4.11377C8.17393 4.22899 8.54186 4.4452 8.83907 4.74202C9.13629 5.03884 9.35299 5.40649 9.46874 5.81027C9.70706 5.81247 9.94323 5.76505 10.1622 5.67102C10.3812 5.577 10.5783 5.43842 10.7408 5.26411C10.9033 5.0898 11.0278 4.88357 11.1063 4.65854C11.1848 4.43351 11.2156 4.1946 11.1967 3.95702L11.1997 3.96377ZM8.58974 5.64002C8.44116 5.3787 8.22671 5.16087 7.96774 5.00822C7.70877 4.85558 7.41433 4.77345 7.11374 4.77002H7.09499C6.79237 4.76995 6.4951 4.84984 6.23328 5.0016C5.97147 5.15336 5.75439 5.3716 5.60405 5.63424C5.4537 5.89687 5.37541 6.19457 5.37712 6.49718C5.37882 6.7998 5.46045 7.0966 5.61374 7.35752C6.02189 7.25507 6.44942 7.25847 6.85588 7.3674C7.26235 7.47633 7.63428 7.68719 7.93649 7.98002C8.13301 7.86924 8.30577 7.72083 8.44492 7.54327C8.58407 7.36572 8.68688 7.16248 8.74747 6.94518C8.80807 6.72789 8.82526 6.50078 8.79807 6.27684C8.77087 6.05289 8.69983 5.8365 8.58899 5.64002M7.91549 10.005C7.97453 9.61617 7.89771 9.21885 7.69799 8.88002C7.55776 8.64245 7.36259 8.44198 7.12886 8.29543C6.89514 8.14888 6.62967 8.06052 6.35474 8.03777C6.31432 8.03461 6.27379 8.03286 6.23324 8.03252H6.21749C5.83742 8.03235 5.46803 8.15825 5.16718 8.39051C4.86633 8.62276 4.65102 8.94825 4.55497 9.31598C4.45892 9.68371 4.48756 10.0729 4.6364 10.4226C4.78525 10.7723 5.04589 11.0628 5.37749 11.2485C5.67835 10.9558 6.04911 10.7449 6.4545 10.6359C6.85989 10.527 7.28641 10.5236 7.69349 10.626C7.807 10.4353 7.88264 10.2244 7.91624 10.005M6.32249 11.4848C6.02927 11.6328 5.78442 11.8616 5.61674 12.144C5.4621 12.4048 5.37925 12.7019 5.37661 13.0051C5.37398 13.3083 5.45164 13.6067 5.60173 13.8702C5.75181 14.1336 5.96895 14.3526 6.2311 14.505C6.49325 14.6573 6.79105 14.7376 7.09424 14.7375H7.11299C7.22841 14.3333 7.44497 13.9652 7.7422 13.668C8.03944 13.3707 8.40754 13.1542 8.81174 13.0388V13.02C8.81186 12.7317 8.7394 12.448 8.60105 12.1951C8.46269 11.9422 8.26289 11.7281 8.02007 11.5727C7.77724 11.4173 7.4992 11.3255 7.21157 11.3058C6.92394 11.2861 6.63599 11.3392 6.37424 11.46L6.32249 11.4848Z"/>
</mask>
<path d="M17.337 14.3033C17.1927 14.0861 17.0034 13.9025 16.7818 13.7651C16.5602 13.6276 16.3117 13.5395 16.053 13.5068H16.0492C15.7123 13.4648 15.3704 13.5182 15.0622 13.6608C14.7541 13.8035 14.4922 14.0297 14.3062 14.3138C13.9008 13.996 13.4088 13.8083 12.8947 13.7753C13.0207 13.5353 13.1767 13.3103 13.3597 13.107C12.8989 12.8055 12.5204 12.3939 12.2585 11.9094C11.9966 11.4249 11.8596 10.8828 11.8597 10.332V10.2158C11.3815 9.87172 11.0033 9.40667 10.7639 8.8683C10.5246 8.32993 10.4327 7.7376 10.4977 7.15202C10.4084 7.18018 10.3181 7.2052 10.227 7.22702H10.2277C10.0818 7.84048 9.75928 8.39771 9.29999 8.82977C9.48224 9.43202 9.48224 10.0748 9.29999 10.677C9.76217 11.111 10.0862 11.6716 10.2315 12.2888C10.6576 12.3905 11.0586 12.5777 11.41 12.8392C11.7615 13.1007 12.0561 13.4309 12.276 13.8098C11.7722 13.8995 11.3069 14.1383 10.9402 14.4953C10.7855 14.25 10.571 14.0479 10.317 13.908C10.0629 13.768 9.77754 13.6948 9.48749 13.695H9.46874C9.1959 13.6974 8.92759 13.765 8.68621 13.8922C8.44483 14.0194 8.2374 14.2025 8.08124 14.4263C7.83405 14.7773 7.72791 15.2085 7.7839 15.6343C7.83989 16.06 8.05392 16.449 8.38349 16.7243C8.63742 16.9374 8.94758 17.0724 9.27656 17.1131C9.60554 17.1539 9.93927 17.0985 10.2375 16.9538C10.329 17.3205 10.4985 17.6558 10.7272 17.9408L10.38 18.5018C9.96124 18.6225 9.52233 18.657 9.08986 18.603C8.6574 18.5491 8.2404 18.4079 7.86414 18.188C7.48789 17.968 7.16023 17.674 6.90103 17.3236C6.64183 16.9733 6.45648 16.5739 6.35624 16.1498C5.9289 16.0492 5.52668 15.8622 5.17439 15.6002C4.8221 15.3382 4.52721 15.0069 4.30789 14.6266C4.08857 14.2463 3.94948 13.8251 3.89919 13.3889C3.8489 12.9528 3.88848 12.511 4.01549 12.0908C3.69538 11.7903 3.44025 11.4274 3.26585 11.0245C3.09144 10.6216 3.00146 10.1872 3.00146 9.74814C3.00146 9.3091 3.09144 8.87472 3.26585 8.47181C3.44025 8.06889 3.69538 7.706 4.01549 7.40552C3.88981 6.98575 3.8513 6.54471 3.90233 6.10951C3.95335 5.67431 4.09284 5.25414 4.31221 4.87482C4.53158 4.4955 4.8262 4.16506 5.17797 3.90378C5.52974 3.64251 5.93122 3.45593 6.35774 3.35552C6.45816 2.929 6.64473 2.52752 6.90601 2.17575C7.16728 1.82398 7.49773 1.52936 7.87704 1.30999C8.25636 1.09061 8.67653 0.95113 9.11173 0.900104C9.54693 0.849078 9.98797 0.887589 10.4077 1.01327C10.7081 0.693206 11.071 0.438153 11.4738 0.263874C11.8767 0.0895947 12.311 -0.000207095 12.75 1.90309e-05C13.2494 -0.00170053 13.7423 0.113131 14.1896 0.335382C14.6368 0.557634 15.026 0.881173 15.3262 1.28027C16.0148 1.31369 16.6759 1.56059 17.2177 1.98672C17.7596 2.41285 18.1554 2.99708 18.3502 3.65833C18.545 4.31959 18.5292 5.02509 18.3049 5.67693C18.0806 6.32878 17.6589 6.89464 17.0985 7.29602C17.106 7.36652 17.106 7.44152 17.106 7.51652V7.63277C17.6684 8.03916 18.0906 8.61023 18.3142 9.26702C18.9711 9.41848 19.5663 9.76663 20.0202 10.265C20.4742 10.7634 20.7654 11.3884 20.855 12.0565C20.9446 12.7247 20.8284 13.4043 20.5219 14.0047C20.2153 14.6051 19.733 15.0978 19.1392 15.417C19.1229 15.9047 18.9992 16.3828 18.7768 16.8171C18.5544 17.2514 18.2389 17.6313 17.8527 17.9296C17.4666 18.2279 17.0194 18.4373 16.543 18.5428C16.0666 18.6483 15.5727 18.6474 15.0967 18.54L14.7277 17.9415C14.9445 17.6715 15.108 17.3565 15.2017 17.0123C15.5658 17.1457 15.9631 17.1589 16.3352 17.05C16.7074 16.9411 17.0348 16.7157 17.2695 16.407C17.498 16.1069 17.6272 15.743 17.6393 15.3659C17.6514 14.9889 17.5458 14.6175 17.337 14.3033ZM13.86 1.90652C13.6671 1.74296 13.4404 1.62404 13.1962 1.55824C12.952 1.49244 12.6962 1.4814 12.4472 1.52589C12.1982 1.57038 11.9622 1.66932 11.7559 1.81563C11.5495 1.96194 11.3781 2.15202 11.2537 2.37227C11.5491 2.67395 11.7619 3.04658 11.8716 3.4543C11.9813 3.86202 11.9842 4.29111 11.88 4.70027C12.1086 4.83393 12.365 4.91299 12.6292 4.93127C12.5564 4.37683 12.6668 3.81377 12.9435 3.32785C13.2203 2.84192 13.6482 2.45975 14.1622 2.23952C14.0765 2.11575 13.9749 2.00379 13.86 1.90652ZM14.4442 2.93402C14.0593 3.10247 13.7448 3.39926 13.5543 3.77374C13.3637 4.14822 13.309 4.57721 13.3995 4.98752C13.9055 4.90885 14.4235 4.98354 14.8867 5.20197C15.3499 5.42039 15.737 5.77254 15.9982 6.21302C16.4166 5.99711 16.7346 5.62713 16.8853 5.18115C17.036 4.73518 17.0075 4.2481 16.8059 3.82273C16.6042 3.39736 16.2452 3.06697 15.8046 2.9013C15.3639 2.73562 14.8762 2.74763 14.4442 2.93477M15.228 6.41252C14.9694 6.07726 14.6016 5.84314 14.1884 5.7508C13.7752 5.65846 13.3427 5.71373 12.966 5.90702C12.6727 6.05685 12.4257 6.28366 12.2514 6.56316C12.0772 6.84266 11.9823 7.1643 11.9769 7.49362C11.9715 7.82294 12.0558 8.14752 12.2208 8.43257C12.3858 8.71763 12.6252 8.95241 12.9135 9.11177C13.1665 8.64206 13.5596 8.26291 14.0382 8.02713C14.5167 7.79134 15.0569 7.71064 15.5835 7.79627C15.6203 7.55337 15.6076 7.30551 15.5459 7.06768C15.4843 6.82985 15.3751 6.60698 15.225 6.41252H15.228ZM15.3075 8.51852C14.8519 8.48415 14.4001 8.62303 14.0424 8.90739C13.6848 9.19175 13.4477 9.60063 13.3785 10.0523V10.0553C13.3409 10.3015 13.3545 10.5529 13.4183 10.7937C13.4821 11.0346 13.5948 11.2597 13.7493 11.4551C13.9039 11.6504 14.097 11.8119 14.3167 11.9294C14.5364 12.0469 14.7779 12.1179 15.0262 12.138C15.0993 11.6315 15.322 11.1584 15.6659 10.7794C16.0097 10.4004 16.459 10.1329 16.956 10.011C16.8854 9.61476 16.6852 9.25317 16.3868 8.98304C16.0884 8.7129 15.7088 8.5495 15.3075 8.51852ZM17.5537 10.6883C17.0741 10.6903 16.6149 10.8824 16.2768 11.2225C15.9386 11.5626 15.7492 12.0229 15.75 12.5025C15.75 12.5843 15.7552 12.6645 15.7657 12.7425H15.8257C16.3133 12.7426 16.7907 12.8816 17.2021 13.1433C17.6135 13.4049 17.9418 13.7785 18.1485 14.22C18.4628 14.112 18.7417 13.9201 18.9547 13.665C19.1761 13.3996 19.3171 13.0764 19.3611 12.7336C19.4051 12.3908 19.3503 12.0425 19.2032 11.7298C19.056 11.417 18.8226 11.1528 18.5304 10.9681C18.2382 10.7835 17.8994 10.6862 17.5537 10.6875M11.1997 3.96377C11.1841 3.75166 11.1289 3.54434 11.037 3.35252V3.35627C10.8696 3.00435 10.5874 2.71986 10.2368 2.54959C9.88628 2.37931 9.48822 2.33337 9.1081 2.41933C8.72798 2.50528 8.38842 2.71801 8.14523 3.02255C7.90205 3.32709 7.76972 3.7053 7.76999 4.09502V4.11377C8.17393 4.22899 8.54186 4.4452 8.83907 4.74202C9.13629 5.03884 9.35299 5.40649 9.46874 5.81027C9.70706 5.81247 9.94323 5.76505 10.1622 5.67102C10.3812 5.577 10.5783 5.43842 10.7408 5.26411C10.9033 5.0898 11.0278 4.88357 11.1063 4.65854C11.1848 4.43351 11.2156 4.1946 11.1967 3.95702L11.1997 3.96377ZM8.58974 5.64002C8.44116 5.3787 8.22671 5.16087 7.96774 5.00822C7.70877 4.85558 7.41433 4.77345 7.11374 4.77002H7.09499C6.79237 4.76995 6.4951 4.84984 6.23328 5.0016C5.97147 5.15336 5.75439 5.3716 5.60405 5.63424C5.4537 5.89687 5.37541 6.19457 5.37712 6.49718C5.37882 6.7998 5.46045 7.0966 5.61374 7.35752C6.02189 7.25507 6.44942 7.25847 6.85588 7.3674C7.26235 7.47633 7.63428 7.68719 7.93649 7.98002C8.13301 7.86924 8.30577 7.72083 8.44492 7.54327C8.58407 7.36572 8.68688 7.16248 8.74747 6.94518C8.80807 6.72789 8.82526 6.50078 8.79807 6.27684C8.77087 6.05289 8.69983 5.8365 8.58899 5.64002M7.91549 10.005C7.97453 9.61617 7.89771 9.21885 7.69799 8.88002C7.55776 8.64245 7.36259 8.44198 7.12886 8.29543C6.89514 8.14888 6.62967 8.06052 6.35474 8.03777C6.31432 8.03461 6.27379 8.03286 6.23324 8.03252H6.21749C5.83742 8.03235 5.46803 8.15825 5.16718 8.39051C4.86633 8.62276 4.65102 8.94825 4.55497 9.31598C4.45892 9.68371 4.48756 10.0729 4.6364 10.4226C4.78525 10.7723 5.04589 11.0628 5.37749 11.2485C5.67835 10.9558 6.04911 10.7449 6.4545 10.6359C6.85989 10.527 7.28641 10.5236 7.69349 10.626C7.807 10.4353 7.88264 10.2244 7.91624 10.005M6.32249 11.4848C6.02927 11.6328 5.78442 11.8616 5.61674 12.144C5.4621 12.4048 5.37925 12.7019 5.37661 13.0051C5.37398 13.3083 5.45164 13.6067 5.60173 13.8702C5.75181 14.1336 5.96895 14.3526 6.2311 14.505C6.49325 14.6573 6.79105 14.7376 7.09424 14.7375H7.11299C7.22841 14.3333 7.44497 13.9652 7.7422 13.668C8.03944 13.3707 8.40754 13.1542 8.81174 13.0388V13.02C8.81186 12.7317 8.7394 12.448 8.60105 12.1951C8.46269 11.9422 8.26289 11.7281 8.02007 11.5727C7.77724 11.4173 7.4992 11.3255 7.21157 11.3058C6.92394 11.2861 6.63599 11.3392 6.37424 11.46L6.32249 11.4848Z" fill="#5C4200"/>
<path d="M17.337 14.3033L16.504 14.8565L16.5041 14.8567L17.337 14.3033ZM16.053 13.5068L16.1786 12.5147L16.116 12.5068H16.053V13.5068ZM16.0492 13.5068L15.9256 14.4991L15.9872 14.5068H16.0492V13.5068ZM14.3062 14.3138L13.6893 15.1008L14.5464 15.7727L15.1429 14.8615L14.3062 14.3138ZM12.8947 13.7753L12.0093 13.3104L11.2932 14.6745L12.8307 14.7732L12.8947 13.7753ZM13.3597 13.107L14.1029 13.7761L14.8836 12.909L13.9073 12.2702L13.3597 13.107ZM11.8597 10.332L12.8597 10.3323V10.332H11.8597ZM11.8597 10.2158H12.8597V9.70327L12.4437 9.40399L11.8597 10.2158ZM10.4977 7.15202L11.4916 7.26236L11.661 5.7368L10.1971 6.19829L10.4977 7.15202ZM10.227 7.22702L9.99407 6.25452L10.227 8.22702V7.22702ZM10.2277 7.22702L11.2006 7.45841L11.4935 6.22702H10.2277V7.22702ZM9.29999 8.82977L8.61481 8.1014L8.16332 8.52612L8.34286 9.11941L9.29999 8.82977ZM9.29999 10.677L8.34286 10.3874L8.16314 10.9813L8.61545 11.406L9.29999 10.677ZM10.2315 12.2888L9.25811 12.518L9.39947 13.1183L9.99936 13.2615L10.2315 12.2888ZM12.276 13.8098L12.4514 14.7943L13.8581 14.5436L13.1409 13.3078L12.276 13.8098ZM10.9402 14.4953L10.0945 15.0289L10.7533 16.0729L11.6378 15.2118L10.9402 14.4953ZM9.48749 13.695V14.695H9.48838L9.48749 13.695ZM9.46874 13.695V12.695L9.46012 12.6951L9.46874 13.695ZM8.08124 14.4263L8.8989 15.002L8.90126 14.9986L8.08124 14.4263ZM8.38349 16.7243L9.02632 15.9583L9.02447 15.9567L8.38349 16.7243ZM10.2375 16.9538L11.2078 16.7117L10.9095 15.5161L9.80085 16.0541L10.2375 16.9538ZM10.7272 17.9408L11.5775 18.4671L11.9496 17.8661L11.5071 17.3148L10.7272 17.9408ZM10.38 18.5018L10.6571 19.4626L11.0274 19.3558L11.2303 19.0281L10.38 18.5018ZM6.35624 16.1498L7.32943 15.9198L7.18721 15.318L6.5853 15.1764L6.35624 16.1498ZM4.01549 12.0908L4.97273 12.3801L5.1522 11.7862L4.69989 11.3617L4.01549 12.0908ZM3.00146 9.74814L2.00146 9.74815L3.00146 9.74814ZM4.01549 7.40552L4.69989 8.13463L5.1509 7.71128L4.97348 7.1187L4.01549 7.40552ZM6.35774 3.35552L6.58691 4.32891L7.18931 4.18708L7.33113 3.58468L6.35774 3.35552ZM10.4077 1.01327L10.1209 1.97125L10.7135 2.14869L11.1369 1.69761L10.4077 1.01327ZM12.75 1.90309e-05L12.7495 1.00003L12.7534 1.00001L12.75 1.90309e-05ZM15.3262 1.28027L14.5271 1.88143L14.8092 2.25635L15.2778 2.27909L15.3262 1.28027ZM17.0985 7.29602L16.5162 6.48301L16.0425 6.82232L16.1041 7.4018L17.0985 7.29602ZM17.106 7.63277H16.106V8.1439L16.5203 8.44328L17.106 7.63277ZM18.3142 9.26702L17.3676 9.5894L17.5471 10.1164L18.0896 10.2415L18.3142 9.26702ZM19.1392 15.417L18.6657 14.5362L18.159 14.8087L18.1398 15.3836L19.1392 15.417ZM15.0967 18.54L14.2455 19.0648L14.4663 19.423L14.8767 19.5155L15.0967 18.54ZM14.7277 17.9415L13.9479 17.3155L13.5062 17.8657L13.8765 18.4663L14.7277 17.9415ZM15.2017 17.0123L15.5459 16.0733L14.5231 15.6985L14.2369 16.7495L15.2017 17.0123ZM17.2695 16.407L16.4738 15.8013L16.4734 15.8018L17.2695 16.407ZM13.86 1.90652L13.2133 2.66931L13.2139 2.66977L13.86 1.90652ZM11.2537 2.37227L10.3829 1.88066L10.0135 2.535L10.5392 3.07189L11.2537 2.37227ZM11.88 4.70027L10.9109 4.45355L10.7251 5.18343L11.3753 5.56356L11.88 4.70027ZM12.6292 4.93127L12.5602 5.92888L13.78 6.01328L13.6207 4.80104L12.6292 4.93127ZM14.1622 2.23952L14.5561 3.15871L15.6814 2.67658L14.9843 1.67016L14.1622 2.23952ZM13.3995 4.98752L12.4229 5.20282L12.6251 6.11992L13.5531 5.97565L13.3995 4.98752ZM15.9982 6.21302L15.1381 6.72309L15.619 7.53408L16.4569 7.10164L15.9982 6.21302ZM15.228 6.41252V7.41252H17.2622L16.0198 5.80178L15.228 6.41252ZM12.966 5.90702L13.4209 6.79756L13.4225 6.79673L12.966 5.90702ZM12.9135 9.11177L12.4297 9.98693L13.3145 10.4761L13.7939 9.58594L12.9135 9.11177ZM15.5835 7.79627L15.423 8.78331L16.4206 8.94553L16.5722 7.94623L15.5835 7.79627ZM15.225 6.41252V5.41252H13.1894L14.4335 7.02369L15.225 6.41252ZM15.3075 8.51852L15.3845 7.52149L15.3827 7.52135L15.3075 8.51852ZM13.3785 10.0523L12.39 9.90084L12.3785 9.97612V10.0523H13.3785ZM13.3785 10.0553L14.3671 10.2061L14.3785 10.1311V10.0553H13.3785ZM15.0262 12.138L14.9455 13.1348L15.8819 13.2106L16.016 12.2808L15.0262 12.138ZM16.956 10.011L17.1941 10.9823L18.105 10.759L17.9405 9.83562L16.956 10.011ZM15.75 12.5025H16.75L16.75 12.5009L15.75 12.5025ZM15.7657 12.7425L14.7747 12.8759L14.8913 13.7425H15.7657V12.7425ZM15.8257 12.7425L15.8259 11.7425H15.8257V12.7425ZM18.1485 14.22L17.2428 14.644L17.6237 15.4576L18.4734 15.1658L18.1485 14.22ZM18.9547 13.665L19.7222 14.3061L19.7227 14.3055L18.9547 13.665ZM11.1997 3.96377L10.2859 4.36989L12.197 3.89005L11.1997 3.96377ZM11.037 3.35252L11.9389 2.92056L10.037 3.35252H11.037ZM11.037 3.35627L10.134 3.78588L12.037 3.35627H11.037ZM7.76999 4.09502H8.76999L8.76999 4.09431L7.76999 4.09502ZM7.76999 4.11377H6.76999V4.86842L7.4957 5.07542L7.76999 4.11377ZM9.46874 5.81027L8.50746 6.08584L8.71314 6.80333L9.4595 6.81023L9.46874 5.81027ZM11.1967 3.95702L12.1106 3.5509L10.1999 4.0361L11.1967 3.95702ZM7.11374 4.77002L7.12516 3.77002H7.11374V4.77002ZM7.09499 4.77002L7.09476 5.77002H7.09499V4.77002ZM5.61374 7.35752L4.75153 7.86407L5.13087 8.50975L5.85721 8.32743L5.61374 7.35752ZM7.93649 7.98002L7.24062 8.69818L7.77697 9.21789L8.42756 8.85114L7.93649 7.98002ZM7.69799 8.88002L8.55947 8.37222L8.55915 8.37169L7.69799 8.88002ZM6.35474 8.03777L6.43721 7.04116L6.43259 7.0408L6.35474 8.03777ZM6.23324 8.03252L6.24168 7.03252H6.23324V8.03252ZM6.21749 8.03252L6.21704 9.03252H6.21749V8.03252ZM5.37749 11.2485L4.88886 12.121L5.54 12.4857L6.07487 11.9652L5.37749 11.2485ZM7.69349 10.626L7.44941 11.5958L8.17185 11.7776L8.55283 11.1374L7.69349 10.626ZM6.32249 11.4848L5.89103 10.5826L5.88133 10.5873L5.87173 10.5921L6.32249 11.4848ZM5.61674 12.144L4.75685 11.6335L4.75659 11.634L5.61674 12.144ZM7.09424 14.7375V13.7375H7.09413L7.09424 14.7375ZM7.11299 14.7375V15.7375H7.86741L8.07456 15.0121L7.11299 14.7375ZM8.81174 13.0388L9.08632 14.0003L9.81174 13.7932V13.0388H8.81174ZM8.81174 13.02L7.81174 13.0196V13.02H8.81174ZM6.37424 11.46L5.95499 10.552L5.94278 10.5579L6.37424 11.46ZM18.17 13.75C17.9463 13.4132 17.6526 13.1284 17.309 12.9153L16.2547 14.6148C16.3542 14.6765 16.4392 14.759 16.504 14.8565L18.17 13.75ZM17.309 12.9153C16.9653 12.7021 16.5798 12.5655 16.1786 12.5147L15.9274 14.4989C16.0436 14.5136 16.1552 14.5531 16.2547 14.6148L17.309 12.9153ZM16.053 12.5068H16.0492V14.5068H16.053V12.5068ZM16.1729 12.5144C15.6503 12.4493 15.12 12.5321 14.6421 12.7534L15.4824 14.5683C15.6207 14.5042 15.7743 14.4802 15.9256 14.4991L16.1729 12.5144ZM14.6421 12.7534C14.1642 12.9746 13.758 13.3255 13.4696 13.7661L15.1429 14.8615C15.2264 14.7339 15.344 14.6323 15.4824 14.5683L14.6421 12.7534ZM14.9232 13.5267C14.359 13.0845 13.6742 12.8232 12.9588 12.7773L12.8307 14.7732C13.1434 14.7933 13.4427 14.9075 13.6893 15.1008L14.9232 13.5267ZM13.7801 14.2401C13.8679 14.073 13.9763 13.9168 14.1029 13.7761L12.6166 12.4379C12.3772 12.7038 12.1736 12.9976 12.0093 13.3104L13.7801 14.2401ZM13.9073 12.2702C13.5854 12.0596 13.3211 11.7722 13.1382 11.4339L11.3788 12.3849C11.7197 13.0155 12.2123 13.5513 12.8122 13.9438L13.9073 12.2702ZM13.1382 11.4339C12.9553 11.0955 12.8596 10.7169 12.8597 10.3323L10.8597 10.3317C10.8595 11.0486 11.0379 11.7542 11.3788 12.3849L13.1382 11.4339ZM12.8597 10.332V10.2158H10.8597V10.332H12.8597ZM12.4437 9.40399C12.1094 9.16349 11.845 8.83841 11.6777 8.46208L9.85016 9.27452C10.1615 9.97493 10.6535 10.5799 11.2758 11.0276L12.4437 9.40399ZM11.6777 8.46208C11.5104 8.08574 11.4462 7.67169 11.4916 7.26236L9.50385 7.04168C9.41927 7.8035 9.53879 8.57411 9.85016 9.27452L11.6777 8.46208ZM10.1971 6.19829C10.1301 6.2194 10.0624 6.23816 9.99407 6.25452L10.4599 8.19951C10.5738 8.17224 10.6867 8.14096 10.7984 8.10575L10.1971 6.19829ZM10.227 8.22702H10.2277V6.22702H10.227V8.22702ZM9.25488 6.99563C9.15422 7.41887 8.93168 7.80331 8.61481 8.1014L9.98518 9.55814C10.5869 8.9921 11.0095 8.26209 11.2006 7.45841L9.25488 6.99563ZM8.34286 9.11941C8.46795 9.5328 8.46795 9.97399 8.34286 10.3874L10.2571 10.9667C10.4965 10.1755 10.4965 9.33124 10.2571 8.54013L8.34286 9.11941ZM8.61545 11.406C8.93432 11.7054 9.15786 12.0922 9.25811 12.518L11.2049 12.0596C11.0145 11.2511 10.59 10.5166 9.98453 9.94804L8.61545 11.406ZM9.99936 13.2615C10.2936 13.3317 10.5704 13.461 10.8131 13.6415L12.0069 12.0369C11.5467 11.6945 11.0216 11.4492 10.4636 11.3161L9.99936 13.2615ZM10.8131 13.6415C11.0558 13.8221 11.2593 14.0501 11.4111 14.3117L13.1409 13.3078C12.853 12.8117 12.4672 12.3793 12.0069 12.0369L10.8131 13.6415ZM12.1006 12.8253C11.3999 12.9501 10.7527 13.2822 10.2427 13.7787L11.6378 15.2118C11.8611 14.9944 12.1445 14.8489 12.4514 14.7943L12.1006 12.8253ZM11.7859 13.9616C11.541 13.5734 11.2016 13.2536 10.7995 13.0321L9.83448 14.7839C9.94048 14.8423 10.03 14.9266 10.0945 15.0289L11.7859 13.9616ZM10.7995 13.0321C10.3974 12.8106 9.94567 12.6946 9.4866 12.695L9.48838 14.695C9.6094 14.6949 9.72848 14.7255 9.83448 14.7839L10.7995 13.0321ZM9.48749 12.695H9.46874V14.695H9.48749V12.695ZM9.46012 12.6951C9.02773 12.6988 8.60251 12.8059 8.21997 13.0075L9.15245 14.7768C9.25267 14.724 9.36408 14.696 9.47736 14.695L9.46012 12.6951ZM8.21997 13.0075C7.83744 13.2091 7.5087 13.4994 7.26122 13.8539L8.90126 14.9986C8.9661 14.9057 9.05223 14.8297 9.15245 14.7768L8.21997 13.0075ZM7.26359 13.8506C6.8719 14.4069 6.70372 15.0901 6.79244 15.7647L8.77536 15.5038C8.7521 15.327 8.7962 15.1478 8.8989 15.002L7.26359 13.8506ZM6.79244 15.7647C6.88116 16.4392 7.2203 17.0557 7.74252 17.4918L9.02447 15.9567C8.88755 15.8424 8.79862 15.6807 8.77536 15.5038L6.79244 15.7647ZM7.74066 17.4903C8.14243 17.8274 8.63319 18.0411 9.15371 18.1056L9.39941 16.1207C9.26198 16.1037 9.1324 16.0473 9.02632 15.9583L7.74066 17.4903ZM9.15371 18.1056C9.67424 18.17 10.2023 18.0824 10.6741 17.8534L9.80085 16.0541C9.67626 16.1146 9.53684 16.1377 9.39941 16.1207L9.15371 18.1056ZM9.26723 17.1958C9.3944 17.7056 9.62997 18.1713 9.94738 18.5667L11.5071 17.3148C11.367 17.1403 11.2636 16.9355 11.2078 16.7117L9.26723 17.1958ZM9.87695 17.4145L9.5297 17.9755L11.2303 19.0281L11.5775 18.4671L9.87695 17.4145ZM10.1029 17.5409C9.81426 17.6242 9.51173 17.6479 9.21364 17.6107L8.96609 19.5954C9.53293 19.6661 10.1082 19.6209 10.6571 19.4626L10.1029 17.5409ZM9.21364 17.6107C8.91555 17.5736 8.62813 17.4762 8.36879 17.3246L7.3595 19.0513C7.85267 19.3396 8.39924 19.5247 8.96609 19.5954L9.21364 17.6107ZM8.36879 17.3246C8.10945 17.173 7.8836 16.9703 7.70494 16.7289L6.09712 17.9184C6.43686 18.3776 6.86634 18.763 7.3595 19.0513L8.36879 17.3246ZM7.70494 16.7289C7.52628 16.4874 7.39852 16.2121 7.32943 15.9198L5.38305 16.3798C5.51444 16.9357 5.75738 17.4591 6.09712 17.9184L7.70494 16.7289ZM6.5853 15.1764C6.29089 15.1071 6.0138 14.9782 5.77111 14.7978L4.57768 16.4027C5.03956 16.7461 5.5669 16.9913 6.12719 17.1232L6.5853 15.1764ZM5.77111 14.7978C5.52841 14.6173 5.32526 14.389 5.17417 14.127L3.44161 15.1261C3.72916 15.6248 4.11579 16.0592 4.57768 16.4027L5.77111 14.7978ZM5.17417 14.127C5.02308 13.865 4.92725 13.5748 4.89261 13.2744L2.90577 13.5035C2.97171 14.0753 3.15407 14.6275 3.44161 15.1261L5.17417 14.127ZM4.89261 13.2744C4.85797 12.9739 4.88523 12.6696 4.97273 12.3801L3.05825 11.8015C2.89174 12.3524 2.83984 12.9317 2.90577 13.5035L4.89261 13.2744ZM4.69989 11.3617C4.47941 11.1547 4.30369 10.9048 4.18356 10.6272L2.34813 11.4217C2.57682 11.95 2.91136 12.4259 3.33109 12.8199L4.69989 11.3617ZM4.18356 10.6272C4.06344 10.3497 4.00146 10.0505 4.00146 9.74814L2.00146 9.74815C2.00146 10.3238 2.11945 10.8934 2.34813 11.4217L4.18356 10.6272ZM4.00146 9.74814C4.00146 9.44575 4.06344 9.14656 4.18356 8.86905L2.34813 8.07457C2.11945 8.60288 2.00146 9.17246 2.00146 9.74814H4.00146ZM4.18356 8.86905C4.30369 8.59154 4.47941 8.34159 4.69989 8.13463L3.33109 6.67641C2.91136 7.07041 2.57682 7.54625 2.34813 8.07457L4.18356 8.86905ZM4.97348 7.1187C4.8869 6.82954 4.86038 6.52574 4.89552 6.22596L2.90913 5.99306C2.84223 6.56368 2.89272 7.14195 3.05751 7.69234L4.97348 7.1187ZM4.89552 6.22596C4.93067 5.92617 5.02676 5.63674 5.17787 5.37546L3.44655 4.37418C3.15892 4.87153 2.97603 5.42244 2.90913 5.99306L4.89552 6.22596ZM5.17787 5.37546C5.32898 5.11417 5.53192 4.88655 5.77423 4.70657L4.58171 3.10099C4.12048 3.44357 3.73418 3.87684 3.44655 4.37418L5.17787 5.37546ZM5.77423 4.70657C6.01655 4.5266 6.2931 4.39808 6.58691 4.32891L6.12858 2.38213C5.56934 2.51379 5.04293 2.75842 4.58171 3.10099L5.77423 4.70657ZM7.33113 3.58468C7.4003 3.29088 7.52882 3.01432 7.7088 2.77201L6.10322 1.57948C5.76065 2.04071 5.51602 2.56712 5.38435 3.12636L7.33113 3.58468ZM7.7088 2.77201C7.88877 2.5297 8.11639 2.32675 8.37768 2.17564L7.3764 0.444329C6.87906 0.73196 6.44579 1.11826 6.10322 1.57948L7.7088 2.77201ZM8.37768 2.17564C8.63897 2.02453 8.9284 1.92845 9.22818 1.8933L8.99528 -0.0930924C8.42466 -0.026189 7.87375 0.156698 7.3764 0.444329L8.37768 2.17564ZM9.22818 1.8933C9.52796 1.85815 9.83177 1.88468 10.1209 1.97125L10.6946 0.0552851C10.1442 -0.109502 9.5659 -0.159996 8.99528 -0.0930924L9.22818 1.8933ZM11.1369 1.69761C11.3437 1.47726 11.5935 1.30166 11.8709 1.18168L11.0768 -0.653928C10.5484 -0.425356 10.0726 -0.0908473 9.67858 0.328923L11.1369 1.69761ZM11.8709 1.18168C12.1482 1.06169 12.4473 0.999863 12.7495 1.00002L12.7505 -0.999981C12.1748 -1.00028 11.6052 -0.8825 11.0768 -0.653928L11.8709 1.18168ZM12.7534 1.00001C13.0973 0.998829 13.4366 1.07789 13.7445 1.2309L14.6346 -0.560137C14.048 -0.851625 13.4015 -1.00223 12.7465 -0.999975L12.7534 1.00001ZM13.7445 1.2309C14.0525 1.38392 14.3204 1.60666 14.5271 1.88143L16.1254 0.679107C15.7316 0.155681 15.2212 -0.268649 14.6346 -0.560137L13.7445 1.2309ZM15.2778 2.27909C15.7589 2.30245 16.2209 2.47499 16.5996 2.77277L17.8359 1.20067C17.1308 0.646194 16.2706 0.324927 15.3747 0.281445L15.2778 2.27909ZM16.5996 2.77277C16.9782 3.07056 17.2548 3.47883 17.391 3.94093L19.3094 3.37574C19.056 2.51532 18.541 1.75514 17.8359 1.20067L16.5996 2.77277ZM17.391 3.94093C17.5271 4.40303 17.516 4.89604 17.3593 5.35156L19.2505 6.0023C19.5423 5.15413 19.5629 4.23616 19.3094 3.37574L17.391 3.94093ZM17.3593 5.35156C17.2025 5.80708 16.9079 6.20252 16.5162 6.48301L17.6807 8.10903C18.41 7.58677 18.9586 6.85047 19.2505 6.0023L17.3593 5.35156ZM16.1041 7.4018C16.104 7.40127 16.1048 7.4089 16.1054 7.42996C16.1059 7.45205 16.106 7.47676 16.106 7.51652H18.106C18.106 7.45265 18.107 7.32299 18.0929 7.19023L16.1041 7.4018ZM16.106 7.51652V7.63277H18.106V7.51652H16.106ZM16.5203 8.44328C16.9147 8.72829 17.2108 9.12879 17.3676 9.5894L19.2609 8.94463C18.9704 8.09167 18.422 7.35003 17.6917 6.82226L16.5203 8.44328ZM18.0896 10.2415C18.5483 10.3472 18.9639 10.5903 19.2809 10.9384L20.7595 9.59164C20.1686 8.9429 19.394 8.48974 18.5389 8.29259L18.0896 10.2415ZM19.2809 10.9384C19.5979 11.2864 19.8013 11.7229 19.8639 12.1895L21.8461 11.9236C21.7295 11.0539 21.3504 10.2404 20.7595 9.59164L19.2809 10.9384ZM19.8639 12.1895C19.9265 12.6561 19.8453 13.1307 19.6313 13.55L21.4125 14.4594C21.8115 13.6779 21.9628 12.7933 21.8461 11.9236L19.8639 12.1895ZM19.6313 13.55C19.4172 13.9693 19.0803 14.3133 18.6657 14.5362L19.6128 16.2978C20.3857 15.8823 21.0135 15.241 21.4125 14.4594L19.6313 13.55ZM18.1398 15.3836C18.1284 15.7242 18.042 16.058 17.8867 16.3613L19.6669 17.2728C19.9564 16.7075 20.1175 16.0852 20.1387 15.4504L18.1398 15.3836ZM17.8867 16.3613C17.7314 16.6646 17.511 16.9299 17.2414 17.1382L18.4641 18.7209C18.9667 18.3327 19.3774 17.8382 19.6669 17.2728L17.8867 16.3613ZM17.2414 17.1382C16.9717 17.3466 16.6594 17.4928 16.3267 17.5665L16.7592 19.5191C17.3793 19.3818 17.9615 19.1092 18.4641 18.7209L17.2414 17.1382ZM16.3267 17.5665C15.994 17.6402 15.6492 17.6395 15.3168 17.5645L14.8767 19.5155C15.4963 19.6553 16.1391 19.6565 16.7592 19.5191L16.3267 17.5665ZM15.948 18.0152L15.579 17.4167L13.8765 18.4663L14.2455 19.0648L15.948 18.0152ZM15.5076 18.5675C15.8083 18.1929 16.0359 17.7548 16.1666 17.275L14.2369 16.7495C14.18 16.9582 14.0807 17.1501 13.9479 17.3155L15.5076 18.5675ZM14.8576 17.9512C15.4225 18.1582 16.0388 18.1787 16.6162 18.0097L16.0543 16.0903C15.8874 16.1391 15.7092 16.1332 15.5459 16.0733L14.8576 17.9512ZM16.6162 18.0097C17.1935 17.8407 17.7015 17.4911 18.0656 17.0122L16.4734 15.8018C16.3681 15.9403 16.2213 16.0414 16.0543 16.0903L16.6162 18.0097ZM18.0652 17.0127C18.4196 16.5471 18.6201 15.9828 18.6388 15.398L16.6399 15.3339C16.6344 15.5032 16.5764 15.6666 16.4738 15.8013L18.0652 17.0127ZM18.6388 15.398C18.6576 14.8132 18.4937 14.2372 18.1699 13.7499L16.5041 14.8567C16.5978 14.9978 16.6453 15.1646 16.6399 15.3339L18.6388 15.398ZM14.5066 1.14373C14.2014 0.884948 13.8427 0.696779 13.4563 0.59267L12.936 2.52381C13.038 2.5513 13.1327 2.60098 13.2133 2.66931L14.5066 1.14373ZM13.4563 0.59267C13.0699 0.488562 12.6653 0.471084 12.2713 0.541485L12.6231 2.51029C12.7272 2.49171 12.834 2.49632 12.936 2.52381L13.4563 0.59267ZM12.2713 0.541485C11.8774 0.611886 11.5038 0.768429 11.1774 0.999927L12.3343 2.63134C12.4205 2.57021 12.5191 2.52888 12.6231 2.51029L12.2713 0.541485ZM11.1774 0.999927C10.8509 1.23143 10.5797 1.53217 10.3829 1.88066L12.1246 2.86388C12.1765 2.77186 12.2481 2.69246 12.3343 2.63134L11.1774 0.999927ZM10.5392 3.07189C10.7145 3.25094 10.8408 3.47209 10.9059 3.71407L12.8373 3.19452C12.683 2.62106 12.3837 2.09696 11.9683 1.67265L10.5392 3.07189ZM10.9059 3.71407C10.971 3.95605 10.9727 4.21071 10.9109 4.45355L12.8491 4.94699C12.9956 4.3715 12.9915 3.76799 12.8373 3.19452L10.9059 3.71407ZM11.3753 5.56356C11.7369 5.77495 12.1424 5.89997 12.5602 5.92888L12.6983 3.93365C12.5877 3.926 12.4804 3.89292 12.3847 3.83698L11.3753 5.56356ZM13.6207 4.80104C13.5763 4.46275 13.6436 4.11921 13.8125 3.82273L12.0746 2.83296C11.6899 3.50833 11.5365 4.2909 11.6378 5.0615L13.6207 4.80104ZM13.8125 3.82273C13.9813 3.52625 14.2424 3.29307 14.5561 3.15871L13.7684 1.32033C13.054 1.62642 12.4592 2.15759 12.0746 2.83296L13.8125 3.82273ZM14.9843 1.67016C14.8487 1.47433 14.6879 1.29718 14.5061 1.14327L13.2139 2.66977C13.2619 2.71041 13.3043 2.75718 13.3402 2.80888L14.9843 1.67016ZM14.0433 2.01791C13.4463 2.27918 12.9585 2.73948 12.663 3.32029L14.4455 4.22719C14.5311 4.05904 14.6723 3.92577 14.8452 3.85013L14.0433 2.01791ZM12.663 3.32029C12.3675 3.9011 12.2826 4.56644 12.4229 5.20282L14.376 4.77222C14.3354 4.58798 14.36 4.39535 14.4455 4.22719L12.663 3.32029ZM13.5531 5.97565C13.8617 5.92767 14.1777 5.97322 14.4602 6.10644L15.3132 4.29749C14.6693 3.99386 13.9493 3.89003 13.2459 3.99939L13.5531 5.97565ZM14.4602 6.10644C14.7427 6.23966 14.9788 6.45444 15.1381 6.72309L16.8584 5.70295C16.4953 5.09064 15.9571 4.60113 15.3132 4.29749L14.4602 6.10644ZM16.4569 7.10164C17.1057 6.76678 17.599 6.19294 17.8327 5.50125L15.9379 4.86106C15.8703 5.06132 15.7274 5.22745 15.5396 5.3244L16.4569 7.10164ZM17.8327 5.50125C18.0664 4.80956 18.0222 4.05412 17.7095 3.39439L15.9022 4.25108C15.9928 4.44209 16.0056 4.6608 15.9379 4.86106L17.8327 5.50125ZM17.7095 3.39439C17.3967 2.73466 16.8399 2.22223 16.1565 1.96528L15.4526 3.83732C15.6505 3.91171 15.8117 4.06007 15.9022 4.25108L17.7095 3.39439ZM16.1565 1.96528C15.4731 1.70832 14.7166 1.72694 14.0467 2.01719L14.8418 3.85235C15.0358 3.76832 15.2548 3.76293 15.4526 3.83732L16.1565 1.96528ZM16.0198 5.80178C15.6185 5.2815 15.0477 4.91818 14.4065 4.77488L13.9703 6.72673C14.1555 6.76811 14.3203 6.87303 14.4362 7.02326L16.0198 5.80178ZM14.4065 4.77488C13.7652 4.63158 13.0941 4.71735 12.5095 5.0173L13.4225 6.79673C13.5913 6.71012 13.7851 6.68535 13.9703 6.72673L14.4065 4.77488ZM12.5111 5.01648C12.0562 5.24886 11.6731 5.60064 11.4028 6.03413L13.1 7.09219C13.1783 6.96669 13.2892 6.86484 13.4209 6.79756L12.5111 5.01648ZM11.4028 6.03413C11.1326 6.46762 10.9854 6.96648 10.977 7.47724L12.9768 7.51C12.9792 7.36212 13.0218 7.2177 13.1 7.09219L11.4028 6.03413ZM10.977 7.47724C10.9687 7.988 11.0994 8.49141 11.3553 8.93352L13.0863 7.93162C13.0122 7.80362 12.9743 7.65788 12.9768 7.51L10.977 7.47724ZM11.3553 8.93352C11.6112 9.37563 11.9826 9.73978 12.4297 9.98693L13.3973 8.23661C13.2679 8.16505 13.1604 8.05962 13.0863 7.93162L11.3553 8.93352ZM13.7939 9.58594C13.9483 9.29935 14.1881 9.06802 14.4801 8.92416L13.5962 7.13009C12.9311 7.45781 12.3847 7.98477 12.0331 8.6376L13.7939 9.58594ZM14.4801 8.92416C14.7721 8.7803 15.1017 8.73106 15.423 8.78331L15.744 6.80923C15.0121 6.69022 14.2613 6.80238 13.5962 7.13009L14.4801 8.92416ZM16.5722 7.94623C16.6293 7.56972 16.6095 7.18553 16.514 6.81688L14.5779 7.31848C14.6056 7.42549 14.6114 7.53701 14.5948 7.6463L16.5722 7.94623ZM16.514 6.81688C16.4185 6.44823 16.2492 6.10276 16.0165 5.80135L14.4335 7.02369C14.5011 7.11119 14.5502 7.21147 14.5779 7.31848L16.514 6.81688ZM15.225 7.41252H15.228V5.41252H15.225V7.41252ZM15.3827 7.52135C14.6759 7.46803 13.9749 7.68349 13.4201 8.12465L14.6648 9.69013C14.8252 9.56257 15.0279 9.50027 15.2323 9.51569L15.3827 7.52135ZM13.4201 8.12465C12.8652 8.56581 12.4974 9.20016 12.39 9.90084L14.367 10.2037C14.398 10.0011 14.5044 9.81768 14.6648 9.69013L13.4201 8.12465ZM12.3785 10.0523V10.0553H14.3785V10.0523H12.3785ZM12.3899 9.90449C12.3317 10.2865 12.3527 10.6763 12.4516 11.0498L14.3849 10.5377C14.3563 10.4295 14.3502 10.3166 14.3671 10.2061L12.3899 9.90449ZM12.4516 11.0498C12.5506 11.4233 12.7254 11.7725 12.9651 12.0755L14.5336 10.8346C14.4642 10.7469 14.4136 10.6458 14.3849 10.5377L12.4516 11.0498ZM12.9651 12.0755C13.2048 12.3785 13.5044 12.629 13.8451 12.8112L14.7884 11.0476C14.6897 10.9948 14.603 10.9223 14.5336 10.8346L12.9651 12.0755ZM13.8451 12.8112C14.1858 12.9934 14.5604 13.1036 14.9455 13.1348L15.107 11.1413C14.9955 11.1323 14.887 11.1004 14.7884 11.0476L13.8451 12.8112ZM16.016 12.2808C16.0606 11.9716 16.1966 11.6827 16.4065 11.4514L14.9253 10.1075C14.4475 10.6341 14.138 11.2915 14.0365 11.9953L16.016 12.2808ZM16.4065 11.4514C16.6164 11.22 16.8907 11.0566 17.1941 10.9823L16.7179 9.03977C16.0273 9.20906 15.403 9.58088 14.9253 10.1075L16.4065 11.4514ZM17.9405 9.83562C17.831 9.22122 17.5206 8.66058 17.058 8.24172L15.7157 9.72435C15.8498 9.84577 15.9398 10.0083 15.9715 10.1864L17.9405 9.83562ZM17.058 8.24172C16.5953 7.82287 16.0067 7.56953 15.3845 7.52149L15.2305 9.51555C15.4109 9.52948 15.5815 9.60292 15.7157 9.72435L17.058 8.24172ZM17.5496 9.68828C16.8052 9.69136 16.0925 9.98954 15.5676 10.5174L16.9859 11.9275C17.1374 11.7752 17.3431 11.6891 17.5579 11.6883L17.5496 9.68828ZM15.5676 10.5174C15.0428 11.0453 14.7488 11.7598 14.75 12.5042L16.75 12.5009C16.7496 12.286 16.8345 12.0799 16.9859 11.9275L15.5676 10.5174ZM14.75 12.5025C14.75 12.627 14.758 12.7518 14.7747 12.8759L16.7568 12.6091C16.7525 12.5772 16.75 12.5416 16.75 12.5025H14.75ZM15.7657 13.7425H15.8257V11.7425H15.7657V13.7425ZM15.8256 13.7425C16.1231 13.7426 16.4144 13.8274 16.6654 13.987L17.7388 12.2995C17.1671 11.9358 16.5035 11.7426 15.8259 11.7425L15.8256 13.7425ZM16.6654 13.987C16.9164 14.1467 17.1167 14.3746 17.2428 14.644L19.0542 13.796C18.7669 13.1823 18.3106 12.6632 17.7388 12.2995L16.6654 13.987ZM18.4734 15.1658C18.9603 14.9985 19.3921 14.7012 19.7222 14.3061L18.1873 13.0239C18.0912 13.139 17.9654 13.2256 17.8236 13.2743L18.4734 15.1658ZM19.7227 14.3055C20.0661 13.8938 20.2847 13.3927 20.353 12.8609L18.3693 12.6063C18.3495 12.7602 18.2862 12.9053 18.1868 13.0245L19.7227 14.3055ZM20.353 12.8609C20.4212 12.3292 20.3363 11.7891 20.108 11.304L18.2983 12.1555C18.3644 12.296 18.389 12.4523 18.3693 12.6063L20.353 12.8609ZM20.108 11.304C19.8798 10.8189 19.5178 10.4091 19.0646 10.1228L17.9963 11.8135C18.1275 11.8964 18.2323 12.0151 18.2983 12.1555L20.108 11.304ZM19.0646 10.1228C18.6114 9.83641 18.0859 9.68541 17.5498 9.68753L17.5577 11.6875C17.7129 11.6869 17.865 11.7306 17.9963 11.8135L19.0646 10.1228ZM12.197 3.89005C12.1722 3.55363 12.0846 3.22481 11.9389 2.92056L10.1351 3.78447C10.1731 3.86387 10.196 3.94969 10.2025 4.03748L12.197 3.89005ZM10.037 3.35252V3.35627H12.037V3.35252H10.037ZM11.94 2.92666C11.6751 2.36975 11.2285 1.91955 10.6738 1.65009L9.79991 3.44909C9.94626 3.52018 10.0641 3.63895 10.134 3.78588L11.94 2.92666ZM10.6738 1.65009C10.119 1.38063 9.48909 1.30793 8.88755 1.44395L9.32866 3.3947C9.48736 3.35882 9.65355 3.37799 9.79991 3.44909L10.6738 1.65009ZM8.88755 1.44395C8.286 1.57998 7.74865 1.91662 7.36381 2.39855L8.92666 3.64655C9.02819 3.5194 9.16996 3.43059 9.32866 3.3947L8.88755 1.44395ZM7.36381 2.39855C6.97897 2.88048 6.76956 3.479 6.76999 4.09573L8.76999 4.09431C8.76988 3.9316 8.82513 3.77369 8.92666 3.64655L7.36381 2.39855ZM6.76999 4.09502V4.11377H8.76999V4.09502H6.76999ZM7.4957 5.07542C7.73628 5.14404 7.95542 5.27281 8.13243 5.4496L9.54571 4.03445C9.1283 3.61759 8.61158 3.31393 8.04429 3.15212L7.4957 5.07542ZM8.13243 5.4496C8.30945 5.62638 8.43852 5.84535 8.50746 6.08584L10.43 5.5347C10.2675 4.96763 9.96312 4.45131 9.54571 4.03445L8.13243 5.4496ZM9.4595 6.81023C9.83658 6.81371 10.2103 6.73868 10.5568 6.58991L9.7677 4.75214C9.67621 4.79142 9.57755 4.81123 9.47799 4.81031L9.4595 6.81023ZM10.5568 6.58991C10.9033 6.44113 11.215 6.22187 11.4722 5.94607L10.0094 4.58215C9.94149 4.65497 9.85918 4.71286 9.7677 4.75214L10.5568 6.58991ZM11.4722 5.94607C11.7293 5.67027 11.9263 5.34396 12.0505 4.98791L10.1621 4.32917C10.1293 4.42317 10.0773 4.50933 10.0094 4.58215L11.4722 5.94607ZM12.0505 4.98791C12.1747 4.63185 12.2234 4.25385 12.1936 3.87794L10.1999 4.0361C10.2077 4.13535 10.1949 4.23516 10.1621 4.32917L12.0505 4.98791ZM10.2829 4.36314L10.2859 4.36989L12.1136 3.55765L12.1106 3.5509L10.2829 4.36314ZM9.45905 5.14575C9.22411 4.73254 8.88501 4.3881 8.47552 4.14674L7.45995 5.86971C7.5684 5.93363 7.65821 6.02485 7.72043 6.13429L9.45905 5.14575ZM8.47552 4.14674C8.06604 3.90538 7.60046 3.77551 7.12516 3.77008L7.10232 5.76995C7.2282 5.77139 7.35151 5.80578 7.45995 5.86971L8.47552 4.14674ZM7.11374 3.77002H7.09499V5.77002H7.11374V3.77002ZM7.09523 3.77002C6.61641 3.76991 6.14606 3.89631 5.7318 4.13643L6.73477 5.86676C6.84415 5.80336 6.96833 5.76999 7.09476 5.77002L7.09523 3.77002ZM5.7318 4.13643C5.31754 4.37656 4.97408 4.72187 4.73619 5.13742L6.4719 6.13105C6.53471 6.02134 6.6254 5.93016 6.73477 5.86676L5.7318 4.13643ZM4.73619 5.13742C4.4983 5.55297 4.37444 6.02399 4.37713 6.50281L6.3771 6.49156C6.37639 6.36514 6.40909 6.24077 6.4719 6.13105L4.73619 5.13742ZM4.37713 6.50281C4.37983 6.98162 4.50899 7.45123 4.75153 7.86407L6.47595 6.85097C6.41191 6.74197 6.37781 6.61798 6.3771 6.49156L4.37713 6.50281ZM5.85721 8.32743C6.1003 8.26641 6.35493 8.26844 6.59702 8.33331L7.11475 6.40149C6.54391 6.2485 5.94348 6.24373 5.37028 6.38761L5.85721 8.32743ZM6.59702 8.33331C6.8391 8.39819 7.06063 8.52378 7.24062 8.69818L8.63236 7.26185C8.20794 6.85061 7.68559 6.55447 7.11475 6.40149L6.59702 8.33331ZM8.42756 8.85114C8.73849 8.67586 9.01185 8.44105 9.23202 8.16011L7.65783 6.92644C7.5997 7.00062 7.52752 7.06262 7.44543 7.1089L8.42756 8.85114ZM9.23202 8.16011C9.45219 7.87916 9.61485 7.5576 9.71073 7.21378L7.78422 6.67659C7.75891 6.76736 7.71596 6.85227 7.65783 6.92644L9.23202 8.16011ZM9.71073 7.21378C9.8066 6.86997 9.8338 6.51063 9.79077 6.1563L7.80536 6.39738C7.81672 6.49093 7.80953 6.58581 7.78422 6.67659L9.71073 7.21378ZM9.79077 6.1563C9.74775 5.80196 9.63534 5.45958 9.45997 5.1487L7.71801 6.13134C7.76432 6.21342 7.794 6.30382 7.80536 6.39738L9.79077 6.1563ZM8.90416 10.1551C8.99772 9.53887 8.87599 8.9092 8.55947 8.37222L6.83651 9.38781C6.91944 9.5285 6.95133 9.69347 6.92682 9.85492L8.90416 10.1551ZM8.55915 8.37169C8.33762 7.9964 8.02931 7.67971 7.6601 7.4482L6.59763 9.14265C6.69587 9.20425 6.77789 9.2885 6.83683 9.38835L8.55915 8.37169ZM7.6601 7.4482C7.29088 7.21669 6.87152 7.07711 6.43721 7.04118L6.27228 9.03436C6.38783 9.04392 6.4994 9.08106 6.59763 9.14265L7.6601 7.4482ZM6.43259 7.0408C6.36907 7.03584 6.30539 7.03309 6.24168 7.03256L6.2248 9.03248C6.24219 9.03263 6.25956 9.03338 6.27689 9.03473L6.43259 7.0408ZM6.23324 7.03252H6.21749V9.03252H6.23324V7.03252ZM6.21794 7.03252C5.61658 7.03225 5.03211 7.23146 4.5561 7.59894L5.77827 9.18207C5.90395 9.08504 6.05827 9.03245 6.21704 9.03252L6.21794 7.03252ZM4.5561 7.59894C4.08008 7.96642 3.7394 8.48142 3.58743 9.06326L5.52251 9.5687C5.56264 9.41507 5.65258 9.2791 5.77827 9.18207L4.5561 7.59894ZM3.58743 9.06326C3.43546 9.64511 3.48077 10.2609 3.71628 10.8143L5.55653 10.031C5.49435 9.88491 5.48238 9.72232 5.52251 9.5687L3.58743 9.06326ZM3.71628 10.8143C3.95178 11.3676 4.36418 11.8272 4.88886 12.121L5.86613 10.376C5.72759 10.2984 5.61871 10.1771 5.55653 10.031L3.71628 10.8143ZM6.07487 11.9652C6.25343 11.7915 6.47347 11.6663 6.71407 11.6017L6.19493 9.67021C5.62475 9.82346 5.10327 10.1201 4.68012 10.5318L6.07487 11.9652ZM6.71407 11.6017C6.95466 11.537 7.20781 11.535 7.44941 11.5958L7.93758 9.65627C7.36502 9.51215 6.76511 9.51695 6.19493 9.67021L6.71407 11.6017ZM8.55283 11.1374C8.73215 10.8361 8.85163 10.503 8.90472 10.1564L6.92777 9.85362C6.91365 9.94583 6.88186 10.0345 6.83415 10.1146L8.55283 11.1374ZM5.87173 10.5921C5.40852 10.826 5.02174 11.1873 4.75685 11.6335L6.47664 12.6545C6.54711 12.5358 6.65002 12.4396 6.77326 12.3774L5.87173 10.5921ZM4.75659 11.634C4.51191 12.0466 4.38082 12.5167 4.37665 12.9964L6.37657 13.0138C6.37768 12.8871 6.41229 12.763 6.47689 12.6541L4.75659 11.634ZM4.37665 12.9964C4.37248 13.4761 4.49537 13.9484 4.73283 14.3652L6.47062 13.3752C6.40792 13.2651 6.37547 13.1404 6.37657 13.0138L4.37665 12.9964ZM4.73283 14.3652C4.9703 14.782 5.31388 15.1286 5.72866 15.3696L6.73354 13.6404C6.62403 13.5767 6.53332 13.4852 6.47062 13.3752L4.73283 14.3652ZM5.72866 15.3696C6.14343 15.6106 6.61463 15.7376 7.09436 15.7375L7.09413 13.7375C6.96747 13.7375 6.84306 13.704 6.73354 13.6404L5.72866 15.3696ZM7.09424 15.7375H7.11299V13.7375H7.09424V15.7375ZM8.07456 15.0121C8.1433 14.7714 8.27228 14.5521 8.44931 14.3751L7.0351 12.9609C6.61766 13.3783 6.31352 13.8953 6.15143 14.4629L8.07456 15.0121ZM8.44931 14.3751C8.62634 14.1981 8.84558 14.0691 9.08632 14.0003L8.53717 12.0772C7.9695 12.2393 7.45254 12.5434 7.0351 12.9609L8.44931 14.3751ZM9.81174 13.0388V13.02H7.81174V13.0388H9.81174ZM9.81174 13.0204C9.81193 12.5643 9.69728 12.1154 9.47837 11.7152L7.72372 12.675C7.78152 12.7807 7.81179 12.8992 7.81174 13.0196L9.81174 13.0204ZM9.47837 11.7152C9.25946 11.315 8.94333 10.9763 8.55912 10.7304L7.48101 12.415C7.58246 12.4799 7.66593 12.5693 7.72372 12.675L9.47837 11.7152ZM8.55912 10.7304C8.17491 10.4845 7.73498 10.3393 7.27988 10.3082L7.14326 12.3035C7.26342 12.3117 7.37957 12.3501 7.48101 12.415L8.55912 10.7304ZM7.27988 10.3082C6.82479 10.277 6.36917 10.3609 5.95503 10.5521L6.79346 12.3679C6.9028 12.3174 7.0231 12.2953 7.14326 12.3035L7.27988 10.3082ZM5.94278 10.5579L5.89103 10.5826L6.75395 12.3869L6.8057 12.3622L5.94278 10.5579Z" fill="#5C4200" mask="url(#path-2-inside-1_1274_10800)"/>
<path d="M12.7276 14.52C13.2368 14.52 13.6966 14.73 14.0266 15.0675C14.2193 15.2643 14.3645 15.5024 14.4512 15.7638C14.5379 16.0252 14.5638 16.3029 14.5268 16.5758C14.4938 16.8242 14.4096 17.0631 14.2796 17.2774C14.1496 17.4916 13.9766 17.6767 13.7716 17.8208L15.7951 21.0975C16.1326 21.6525 15.8101 22.4175 15.1651 22.4925C15.1426 22.5 15.1126 22.5 15.0826 22.5C14.7863 22.5 14.6378 22.3403 14.4901 22.1813C14.3416 22.0215 14.1938 21.8625 13.8976 21.8625C13.6058 21.8625 13.4596 22.0208 13.3126 22.1798C13.1656 22.3395 13.0171 22.5 12.7201 22.5C12.4283 22.5 12.2821 22.3418 12.1351 22.1828C11.9881 22.023 11.8396 21.8625 11.5426 21.8625C11.2508 21.8625 11.1046 22.0208 10.9576 22.1798C10.8106 22.3395 10.6621 22.5 10.3651 22.5H10.2751C9.63009 22.425 9.30759 21.66 9.65259 21.105L11.6836 17.82C11.2991 17.5505 11.0342 17.1423 10.9447 16.6813C10.8551 16.2204 10.9479 15.7426 11.2036 15.3488C11.355 15.1148 11.5582 14.9188 11.7975 14.776C12.0368 14.6332 12.3058 14.5474 12.5836 14.5253L12.6106 14.5238C12.645 14.5215 12.6796 14.5203 12.7141 14.52H12.7276Z" fill="#5C4200"/>
</g>
</svg>
