<svg width="335" height="110" viewBox="0 0 335 110" fill="none" xmlns="http://www.w3.org/2000/svg">
<g opacity="0.2" clip-path="url(#clip0_1274_10781)">
<path d="M14 -7C30.607 11.635 40.0167 34.1417 40.9485 57.4572C41.6324 78.3052 35.4976 98.9086 23.2192 117" stroke="#E6A400" stroke-width="8" stroke-miterlimit="10"/>
<path d="M-6 52C2.80274 60.2636 10.8614 69.0572 18.1104 78.3092C19.4617 80.0276 34.7885 99.6114 31.5524 101.834C29.8455 102.989 25.0803 97.8042 16.0478 96.3228C8.39131 95.3688 0.577063 96.7129 -6 100.115" stroke="#E6A400" stroke-width="8" stroke-miterlimit="10"/>
<path d="M64.6711 120C68.5367 115.954 70.7803 111.007 71.0883 105.852C71.5185 90.278 51.1197 81.3912 54.3462 74.139C57.5727 66.8868 81.4132 67.9568 84.2095 68.1946C127.445 70.4237 165.124 96.1927 189 116.849" stroke="#E6A400" stroke-width="8" stroke-miterlimit="10"/>
<path d="M191.157 -6C184.899 15.0558 184.329 36.9928 189.487 58.2514C194.645 79.51 205.404 99.5682 221 117" stroke="#E6A400" stroke-width="8" stroke-miterlimit="10"/>
<path d="M155 -10C158.375 -3.69557 164.46 1.42664 172.147 4.43413C177.41 6.39818 183.209 7.25795 189 6.93291" stroke="#E6A400" stroke-width="8" stroke-miterlimit="10"/>
<path d="M85 -6C96.8003 8.26946 110.803 21.1703 126.645 32.367C146.169 46.1414 168.243 57.1633 192 65" stroke="#E6A400" stroke-width="8" stroke-miterlimit="10"/>
<path d="M237.777 -7C231.209 18.1811 233.236 44.409 243.626 68.6646C251.511 86.771 263.913 103.251 280 117" stroke="#E6A400" stroke-width="8" stroke-miterlimit="10"/>
<path d="M277 -7C277.216 14.5001 289.19 33.2076 308.643 41.0449C316.869 44.2402 325.971 45.5363 335 44.7984" stroke="#E6A400" stroke-width="8" stroke-miterlimit="10"/>
</g>
<defs>
<clipPath id="clip0_1274_10781">
<rect width="335" height="110" fill="white"/>
</clipPath>
</defs>
</svg>
